<?xml version="1.0" encoding="utf-8" standalone="no"?>
<!DOCTYPE svg PUBLIC "-//W3C//DTD SVG 1.1//EN"
  "http://www.w3.org/Graphics/SVG/1.1/DTD/svg11.dtd">
<svg height="432pt" version="1.1" viewBox="0 0 1728 432" width="1728pt" xmlns="http://www.w3.org/2000/svg" xmlns:xlink="http://www.w3.org/1999/xlink">
 <metadata>
  <rdf:RDF xmlns:cc="http://creativecommons.org/ns#" xmlns:dc="http://purl.org/dc/elements/1.1/" xmlns:rdf="http://www.w3.org/1999/02/22-rdf-syntax-ns#">
   <cc:Work>
    <dc:type rdf:resource="http://purl.org/dc/dcmitype/StillImage"/>
    <dc:date>2024-05-17T19:04:21.110141</dc:date>
    <dc:format>image/svg+xml</dc:format>
    <dc:creator>
     <cc:Agent>
      <dc:title>Matplotlib v3.4.3, https://matplotlib.org/</dc:title>
     </cc:Agent>
    </dc:creator>
   </cc:Work>
  </rdf:RDF>
 </metadata>
 <defs>
  <style type="text/css">*{stroke-linecap:butt;stroke-linejoin:round;}</style>
 </defs>
 <g id="figure_1">
  <g id="patch_1">
   <path d="M 0 432 
L 1728 432 
L 1728 0 
L 0 0 
z
" style="fill:#ffffff;"/>
  </g>
  <g id="axes_1">
   <g id="patch_2">
    <path d="M 51.14 386.44 
L 498.115686 386.44 
L 498.115686 27.528 
L 51.14 27.528 
z
" style="fill:#ffffff;"/>
   </g>
   <g id="PolyCollection_1"/>
   <g id="PolyCollection_2"/>
   <g id="PolyCollection_3"/>
   <g id="PolyCollection_4"/>
   <g id="matplotlib.axis_1">
    <g id="xtick_1">
     <g id="line2d_1">
      <path clip-path="url(#pc2247f5ca5)" d="M 51.14 386.44 
L 51.14 27.528 
" style="fill:none;stroke:#b0b0b0;stroke-linecap:square;stroke-width:0.8;"/>
     </g>
     <g id="line2d_2">
      <defs>
       <path d="M 0 0 
L 0 3.5 
" id="m7b4853de34" style="stroke:#000000;stroke-width:0.8;"/>
      </defs>
      <g>
       <use style="stroke:#000000;stroke-width:0.8;" x="51.14" xlink:href="#m7b4853de34" y="386.44"/>
      </g>
     </g>
     <g id="text_1">
      <!-- 0.0 -->
      <g transform="translate(43.188437 401.038437)scale(0.1 -0.1)">
       <defs>
        <path d="M 2034 4250 
Q 1547 4250 1301 3770 
Q 1056 3291 1056 2328 
Q 1056 1369 1301 889 
Q 1547 409 2034 409 
Q 2525 409 2770 889 
Q 3016 1369 3016 2328 
Q 3016 3291 2770 3770 
Q 2525 4250 2034 4250 
z
M 2034 4750 
Q 2819 4750 3233 4129 
Q 3647 3509 3647 2328 
Q 3647 1150 3233 529 
Q 2819 -91 2034 -91 
Q 1250 -91 836 529 
Q 422 1150 422 2328 
Q 422 3509 836 4129 
Q 1250 4750 2034 4750 
z
" id="DejaVuSans-30" transform="scale(0.015625)"/>
        <path d="M 684 794 
L 1344 794 
L 1344 0 
L 684 0 
L 684 794 
z
" id="DejaVuSans-2e" transform="scale(0.015625)"/>
       </defs>
       <use xlink:href="#DejaVuSans-30"/>
       <use x="63.623047" xlink:href="#DejaVuSans-2e"/>
       <use x="95.410156" xlink:href="#DejaVuSans-30"/>
      </g>
     </g>
    </g>
    <g id="xtick_2">
     <g id="line2d_3">
      <path clip-path="url(#pc2247f5ca5)" d="M 95.837569 386.44 
L 95.837569 27.528 
" style="fill:none;stroke:#b0b0b0;stroke-linecap:square;stroke-width:0.8;"/>
     </g>
     <g id="line2d_4">
      <g>
       <use style="stroke:#000000;stroke-width:0.8;" x="95.837569" xlink:href="#m7b4853de34" y="386.44"/>
      </g>
     </g>
     <g id="text_2">
      <!-- 0.1 -->
      <g transform="translate(87.886006 401.038437)scale(0.1 -0.1)">
       <defs>
        <path d="M 794 531 
L 1825 531 
L 1825 4091 
L 703 3866 
L 703 4441 
L 1819 4666 
L 2450 4666 
L 2450 531 
L 3481 531 
L 3481 0 
L 794 0 
L 794 531 
z
" id="DejaVuSans-31" transform="scale(0.015625)"/>
       </defs>
       <use xlink:href="#DejaVuSans-30"/>
       <use x="63.623047" xlink:href="#DejaVuSans-2e"/>
       <use x="95.410156" xlink:href="#DejaVuSans-31"/>
      </g>
     </g>
    </g>
    <g id="xtick_3">
     <g id="line2d_5">
      <path clip-path="url(#pc2247f5ca5)" d="M 140.535137 386.44 
L 140.535137 27.528 
" style="fill:none;stroke:#b0b0b0;stroke-linecap:square;stroke-width:0.8;"/>
     </g>
     <g id="line2d_6">
      <g>
       <use style="stroke:#000000;stroke-width:0.8;" x="140.535137" xlink:href="#m7b4853de34" y="386.44"/>
      </g>
     </g>
     <g id="text_3">
      <!-- 0.2 -->
      <g transform="translate(132.583575 401.038437)scale(0.1 -0.1)">
       <defs>
        <path d="M 1228 531 
L 3431 531 
L 3431 0 
L 469 0 
L 469 531 
Q 828 903 1448 1529 
Q 2069 2156 2228 2338 
Q 2531 2678 2651 2914 
Q 2772 3150 2772 3378 
Q 2772 3750 2511 3984 
Q 2250 4219 1831 4219 
Q 1534 4219 1204 4116 
Q 875 4013 500 3803 
L 500 4441 
Q 881 4594 1212 4672 
Q 1544 4750 1819 4750 
Q 2544 4750 2975 4387 
Q 3406 4025 3406 3419 
Q 3406 3131 3298 2873 
Q 3191 2616 2906 2266 
Q 2828 2175 2409 1742 
Q 1991 1309 1228 531 
z
" id="DejaVuSans-32" transform="scale(0.015625)"/>
       </defs>
       <use xlink:href="#DejaVuSans-30"/>
       <use x="63.623047" xlink:href="#DejaVuSans-2e"/>
       <use x="95.410156" xlink:href="#DejaVuSans-32"/>
      </g>
     </g>
    </g>
    <g id="xtick_4">
     <g id="line2d_7">
      <path clip-path="url(#pc2247f5ca5)" d="M 185.232706 386.44 
L 185.232706 27.528 
" style="fill:none;stroke:#b0b0b0;stroke-linecap:square;stroke-width:0.8;"/>
     </g>
     <g id="line2d_8">
      <g>
       <use style="stroke:#000000;stroke-width:0.8;" x="185.232706" xlink:href="#m7b4853de34" y="386.44"/>
      </g>
     </g>
     <g id="text_4">
      <!-- 0.3 -->
      <g transform="translate(177.281143 401.038437)scale(0.1 -0.1)">
       <defs>
        <path d="M 2597 2516 
Q 3050 2419 3304 2112 
Q 3559 1806 3559 1356 
Q 3559 666 3084 287 
Q 2609 -91 1734 -91 
Q 1441 -91 1130 -33 
Q 819 25 488 141 
L 488 750 
Q 750 597 1062 519 
Q 1375 441 1716 441 
Q 2309 441 2620 675 
Q 2931 909 2931 1356 
Q 2931 1769 2642 2001 
Q 2353 2234 1838 2234 
L 1294 2234 
L 1294 2753 
L 1863 2753 
Q 2328 2753 2575 2939 
Q 2822 3125 2822 3475 
Q 2822 3834 2567 4026 
Q 2313 4219 1838 4219 
Q 1578 4219 1281 4162 
Q 984 4106 628 3988 
L 628 4550 
Q 988 4650 1302 4700 
Q 1616 4750 1894 4750 
Q 2613 4750 3031 4423 
Q 3450 4097 3450 3541 
Q 3450 3153 3228 2886 
Q 3006 2619 2597 2516 
z
" id="DejaVuSans-33" transform="scale(0.015625)"/>
       </defs>
       <use xlink:href="#DejaVuSans-30"/>
       <use x="63.623047" xlink:href="#DejaVuSans-2e"/>
       <use x="95.410156" xlink:href="#DejaVuSans-33"/>
      </g>
     </g>
    </g>
    <g id="xtick_5">
     <g id="line2d_9">
      <path clip-path="url(#pc2247f5ca5)" d="M 229.930275 386.44 
L 229.930275 27.528 
" style="fill:none;stroke:#b0b0b0;stroke-linecap:square;stroke-width:0.8;"/>
     </g>
     <g id="line2d_10">
      <g>
       <use style="stroke:#000000;stroke-width:0.8;" x="229.930275" xlink:href="#m7b4853de34" y="386.44"/>
      </g>
     </g>
     <g id="text_5">
      <!-- 0.4 -->
      <g transform="translate(221.978712 401.038437)scale(0.1 -0.1)">
       <defs>
        <path d="M 2419 4116 
L 825 1625 
L 2419 1625 
L 2419 4116 
z
M 2253 4666 
L 3047 4666 
L 3047 1625 
L 3713 1625 
L 3713 1100 
L 3047 1100 
L 3047 0 
L 2419 0 
L 2419 1100 
L 313 1100 
L 313 1709 
L 2253 4666 
z
" id="DejaVuSans-34" transform="scale(0.015625)"/>
       </defs>
       <use xlink:href="#DejaVuSans-30"/>
       <use x="63.623047" xlink:href="#DejaVuSans-2e"/>
       <use x="95.410156" xlink:href="#DejaVuSans-34"/>
      </g>
     </g>
    </g>
    <g id="xtick_6">
     <g id="line2d_11">
      <path clip-path="url(#pc2247f5ca5)" d="M 274.627843 386.44 
L 274.627843 27.528 
" style="fill:none;stroke:#b0b0b0;stroke-linecap:square;stroke-width:0.8;"/>
     </g>
     <g id="line2d_12">
      <g>
       <use style="stroke:#000000;stroke-width:0.8;" x="274.627843" xlink:href="#m7b4853de34" y="386.44"/>
      </g>
     </g>
     <g id="text_6">
      <!-- 0.5 -->
      <g transform="translate(266.676281 401.038437)scale(0.1 -0.1)">
       <defs>
        <path d="M 691 4666 
L 3169 4666 
L 3169 4134 
L 1269 4134 
L 1269 2991 
Q 1406 3038 1543 3061 
Q 1681 3084 1819 3084 
Q 2600 3084 3056 2656 
Q 3513 2228 3513 1497 
Q 3513 744 3044 326 
Q 2575 -91 1722 -91 
Q 1428 -91 1123 -41 
Q 819 9 494 109 
L 494 744 
Q 775 591 1075 516 
Q 1375 441 1709 441 
Q 2250 441 2565 725 
Q 2881 1009 2881 1497 
Q 2881 1984 2565 2268 
Q 2250 2553 1709 2553 
Q 1456 2553 1204 2497 
Q 953 2441 691 2322 
L 691 4666 
z
" id="DejaVuSans-35" transform="scale(0.015625)"/>
       </defs>
       <use xlink:href="#DejaVuSans-30"/>
       <use x="63.623047" xlink:href="#DejaVuSans-2e"/>
       <use x="95.410156" xlink:href="#DejaVuSans-35"/>
      </g>
     </g>
    </g>
    <g id="xtick_7">
     <g id="line2d_13">
      <path clip-path="url(#pc2247f5ca5)" d="M 319.325412 386.44 
L 319.325412 27.528 
" style="fill:none;stroke:#b0b0b0;stroke-linecap:square;stroke-width:0.8;"/>
     </g>
     <g id="line2d_14">
      <g>
       <use style="stroke:#000000;stroke-width:0.8;" x="319.325412" xlink:href="#m7b4853de34" y="386.44"/>
      </g>
     </g>
     <g id="text_7">
      <!-- 0.6 -->
      <g transform="translate(311.373849 401.038437)scale(0.1 -0.1)">
       <defs>
        <path d="M 2113 2584 
Q 1688 2584 1439 2293 
Q 1191 2003 1191 1497 
Q 1191 994 1439 701 
Q 1688 409 2113 409 
Q 2538 409 2786 701 
Q 3034 994 3034 1497 
Q 3034 2003 2786 2293 
Q 2538 2584 2113 2584 
z
M 3366 4563 
L 3366 3988 
Q 3128 4100 2886 4159 
Q 2644 4219 2406 4219 
Q 1781 4219 1451 3797 
Q 1122 3375 1075 2522 
Q 1259 2794 1537 2939 
Q 1816 3084 2150 3084 
Q 2853 3084 3261 2657 
Q 3669 2231 3669 1497 
Q 3669 778 3244 343 
Q 2819 -91 2113 -91 
Q 1303 -91 875 529 
Q 447 1150 447 2328 
Q 447 3434 972 4092 
Q 1497 4750 2381 4750 
Q 2619 4750 2861 4703 
Q 3103 4656 3366 4563 
z
" id="DejaVuSans-36" transform="scale(0.015625)"/>
       </defs>
       <use xlink:href="#DejaVuSans-30"/>
       <use x="63.623047" xlink:href="#DejaVuSans-2e"/>
       <use x="95.410156" xlink:href="#DejaVuSans-36"/>
      </g>
     </g>
    </g>
    <g id="xtick_8">
     <g id="line2d_15">
      <path clip-path="url(#pc2247f5ca5)" d="M 364.02298 386.44 
L 364.02298 27.528 
" style="fill:none;stroke:#b0b0b0;stroke-linecap:square;stroke-width:0.8;"/>
     </g>
     <g id="line2d_16">
      <g>
       <use style="stroke:#000000;stroke-width:0.8;" x="364.02298" xlink:href="#m7b4853de34" y="386.44"/>
      </g>
     </g>
     <g id="text_8">
      <!-- 0.7 -->
      <g transform="translate(356.071418 401.038437)scale(0.1 -0.1)">
       <defs>
        <path d="M 525 4666 
L 3525 4666 
L 3525 4397 
L 1831 0 
L 1172 0 
L 2766 4134 
L 525 4134 
L 525 4666 
z
" id="DejaVuSans-37" transform="scale(0.015625)"/>
       </defs>
       <use xlink:href="#DejaVuSans-30"/>
       <use x="63.623047" xlink:href="#DejaVuSans-2e"/>
       <use x="95.410156" xlink:href="#DejaVuSans-37"/>
      </g>
     </g>
    </g>
    <g id="xtick_9">
     <g id="line2d_17">
      <path clip-path="url(#pc2247f5ca5)" d="M 408.720549 386.44 
L 408.720549 27.528 
" style="fill:none;stroke:#b0b0b0;stroke-linecap:square;stroke-width:0.8;"/>
     </g>
     <g id="line2d_18">
      <g>
       <use style="stroke:#000000;stroke-width:0.8;" x="408.720549" xlink:href="#m7b4853de34" y="386.44"/>
      </g>
     </g>
     <g id="text_9">
      <!-- 0.8 -->
      <g transform="translate(400.768987 401.038437)scale(0.1 -0.1)">
       <defs>
        <path d="M 2034 2216 
Q 1584 2216 1326 1975 
Q 1069 1734 1069 1313 
Q 1069 891 1326 650 
Q 1584 409 2034 409 
Q 2484 409 2743 651 
Q 3003 894 3003 1313 
Q 3003 1734 2745 1975 
Q 2488 2216 2034 2216 
z
M 1403 2484 
Q 997 2584 770 2862 
Q 544 3141 544 3541 
Q 544 4100 942 4425 
Q 1341 4750 2034 4750 
Q 2731 4750 3128 4425 
Q 3525 4100 3525 3541 
Q 3525 3141 3298 2862 
Q 3072 2584 2669 2484 
Q 3125 2378 3379 2068 
Q 3634 1759 3634 1313 
Q 3634 634 3220 271 
Q 2806 -91 2034 -91 
Q 1263 -91 848 271 
Q 434 634 434 1313 
Q 434 1759 690 2068 
Q 947 2378 1403 2484 
z
M 1172 3481 
Q 1172 3119 1398 2916 
Q 1625 2713 2034 2713 
Q 2441 2713 2670 2916 
Q 2900 3119 2900 3481 
Q 2900 3844 2670 4047 
Q 2441 4250 2034 4250 
Q 1625 4250 1398 4047 
Q 1172 3844 1172 3481 
z
" id="DejaVuSans-38" transform="scale(0.015625)"/>
       </defs>
       <use xlink:href="#DejaVuSans-30"/>
       <use x="63.623047" xlink:href="#DejaVuSans-2e"/>
       <use x="95.410156" xlink:href="#DejaVuSans-38"/>
      </g>
     </g>
    </g>
    <g id="xtick_10">
     <g id="line2d_19">
      <path clip-path="url(#pc2247f5ca5)" d="M 453.418118 386.44 
L 453.418118 27.528 
" style="fill:none;stroke:#b0b0b0;stroke-linecap:square;stroke-width:0.8;"/>
     </g>
     <g id="line2d_20">
      <g>
       <use style="stroke:#000000;stroke-width:0.8;" x="453.418118" xlink:href="#m7b4853de34" y="386.44"/>
      </g>
     </g>
     <g id="text_10">
      <!-- 0.9 -->
      <g transform="translate(445.466555 401.038437)scale(0.1 -0.1)">
       <defs>
        <path d="M 703 97 
L 703 672 
Q 941 559 1184 500 
Q 1428 441 1663 441 
Q 2288 441 2617 861 
Q 2947 1281 2994 2138 
Q 2813 1869 2534 1725 
Q 2256 1581 1919 1581 
Q 1219 1581 811 2004 
Q 403 2428 403 3163 
Q 403 3881 828 4315 
Q 1253 4750 1959 4750 
Q 2769 4750 3195 4129 
Q 3622 3509 3622 2328 
Q 3622 1225 3098 567 
Q 2575 -91 1691 -91 
Q 1453 -91 1209 -44 
Q 966 3 703 97 
z
M 1959 2075 
Q 2384 2075 2632 2365 
Q 2881 2656 2881 3163 
Q 2881 3666 2632 3958 
Q 2384 4250 1959 4250 
Q 1534 4250 1286 3958 
Q 1038 3666 1038 3163 
Q 1038 2656 1286 2365 
Q 1534 2075 1959 2075 
z
" id="DejaVuSans-39" transform="scale(0.015625)"/>
       </defs>
       <use xlink:href="#DejaVuSans-30"/>
       <use x="63.623047" xlink:href="#DejaVuSans-2e"/>
       <use x="95.410156" xlink:href="#DejaVuSans-39"/>
      </g>
     </g>
    </g>
    <g id="xtick_11">
     <g id="line2d_21">
      <path clip-path="url(#pc2247f5ca5)" d="M 498.115686 386.44 
L 498.115686 27.528 
" style="fill:none;stroke:#b0b0b0;stroke-linecap:square;stroke-width:0.8;"/>
     </g>
     <g id="line2d_22">
      <g>
       <use style="stroke:#000000;stroke-width:0.8;" x="498.115686" xlink:href="#m7b4853de34" y="386.44"/>
      </g>
     </g>
     <g id="text_11">
      <!-- 1.0 -->
      <g transform="translate(490.164124 401.038437)scale(0.1 -0.1)">
       <use xlink:href="#DejaVuSans-31"/>
       <use x="63.623047" xlink:href="#DejaVuSans-2e"/>
       <use x="95.410156" xlink:href="#DejaVuSans-30"/>
      </g>
     </g>
    </g>
    <g id="text_12">
     <!-- $\alpha$ -->
     <g transform="translate(270.007843 417.755938)scale(0.14 -0.14)">
      <defs>
       <path d="M 2619 1628 
L 2622 2350 
Q 2625 3088 2069 3091 
Q 1653 3094 1394 2747 
Q 1069 2319 959 1747 
Q 825 1059 994 731 
Q 1169 397 1547 397 
Q 1966 397 2319 1063 
L 2619 1628 
z
M 2166 3578 
Q 3141 3594 3128 2584 
Q 3128 2584 3616 3500 
L 4128 3500 
L 3119 1603 
L 3109 919 
Q 3109 766 3194 638 
Q 3291 488 3391 488 
L 3669 488 
L 3575 0 
L 3228 0 
Q 2934 0 2722 263 
Q 2622 394 2619 669 
Q 2416 334 2066 50 
Q 1900 -81 1453 -78 
Q 722 -72 456 397 
Q 184 884 353 1747 
Q 534 2675 1009 3097 
Q 1544 3569 2166 3578 
z
" id="DejaVuSans-Oblique-3b1" transform="scale(0.015625)"/>
      </defs>
      <use transform="translate(0 0.84375)" xlink:href="#DejaVuSans-Oblique-3b1"/>
     </g>
    </g>
   </g>
   <g id="matplotlib.axis_2">
    <g id="ytick_1">
     <g id="line2d_23">
      <path clip-path="url(#pc2247f5ca5)" d="M 51.14 370.125818 
L 498.115686 370.125818 
" style="fill:none;stroke:#b0b0b0;stroke-linecap:square;stroke-width:0.8;"/>
     </g>
     <g id="line2d_24">
      <defs>
       <path d="M 0 0 
L -3.5 0 
" id="mffae93fd29" style="stroke:#000000;stroke-width:0.8;"/>
      </defs>
      <g>
       <use style="stroke:#000000;stroke-width:0.8;" x="51.14" xlink:href="#mffae93fd29" y="370.125818"/>
      </g>
     </g>
     <g id="text_13">
      <!-- 0 -->
      <g transform="translate(37.7775 373.925037)scale(0.1 -0.1)">
       <use xlink:href="#DejaVuSans-30"/>
      </g>
     </g>
    </g>
    <g id="ytick_2">
     <g id="line2d_25">
      <path clip-path="url(#pc2247f5ca5)" d="M 51.14 327.596699 
L 498.115686 327.596699 
" style="fill:none;stroke:#b0b0b0;stroke-linecap:square;stroke-width:0.8;"/>
     </g>
     <g id="line2d_26">
      <g>
       <use style="stroke:#000000;stroke-width:0.8;" x="51.14" xlink:href="#mffae93fd29" y="327.596699"/>
      </g>
     </g>
     <g id="text_14">
      <!-- 2 -->
      <g transform="translate(37.7775 331.395918)scale(0.1 -0.1)">
       <use xlink:href="#DejaVuSans-32"/>
      </g>
     </g>
    </g>
    <g id="ytick_3">
     <g id="line2d_27">
      <path clip-path="url(#pc2247f5ca5)" d="M 51.14 285.067581 
L 498.115686 285.067581 
" style="fill:none;stroke:#b0b0b0;stroke-linecap:square;stroke-width:0.8;"/>
     </g>
     <g id="line2d_28">
      <g>
       <use style="stroke:#000000;stroke-width:0.8;" x="51.14" xlink:href="#mffae93fd29" y="285.067581"/>
      </g>
     </g>
     <g id="text_15">
      <!-- 4 -->
      <g transform="translate(37.7775 288.866799)scale(0.1 -0.1)">
       <use xlink:href="#DejaVuSans-34"/>
      </g>
     </g>
    </g>
    <g id="ytick_4">
     <g id="line2d_29">
      <path clip-path="url(#pc2247f5ca5)" d="M 51.14 242.538462 
L 498.115686 242.538462 
" style="fill:none;stroke:#b0b0b0;stroke-linecap:square;stroke-width:0.8;"/>
     </g>
     <g id="line2d_30">
      <g>
       <use style="stroke:#000000;stroke-width:0.8;" x="51.14" xlink:href="#mffae93fd29" y="242.538462"/>
      </g>
     </g>
     <g id="text_16">
      <!-- 6 -->
      <g transform="translate(37.7775 246.337681)scale(0.1 -0.1)">
       <use xlink:href="#DejaVuSans-36"/>
      </g>
     </g>
    </g>
    <g id="ytick_5">
     <g id="line2d_31">
      <path clip-path="url(#pc2247f5ca5)" d="M 51.14 200.009343 
L 498.115686 200.009343 
" style="fill:none;stroke:#b0b0b0;stroke-linecap:square;stroke-width:0.8;"/>
     </g>
     <g id="line2d_32">
      <g>
       <use style="stroke:#000000;stroke-width:0.8;" x="51.14" xlink:href="#mffae93fd29" y="200.009343"/>
      </g>
     </g>
     <g id="text_17">
      <!-- 8 -->
      <g transform="translate(37.7775 203.808562)scale(0.1 -0.1)">
       <use xlink:href="#DejaVuSans-38"/>
      </g>
     </g>
    </g>
    <g id="ytick_6">
     <g id="line2d_33">
      <path clip-path="url(#pc2247f5ca5)" d="M 51.14 157.480224 
L 498.115686 157.480224 
" style="fill:none;stroke:#b0b0b0;stroke-linecap:square;stroke-width:0.8;"/>
     </g>
     <g id="line2d_34">
      <g>
       <use style="stroke:#000000;stroke-width:0.8;" x="51.14" xlink:href="#mffae93fd29" y="157.480224"/>
      </g>
     </g>
     <g id="text_18">
      <!-- 10 -->
      <g transform="translate(31.415 161.279443)scale(0.1 -0.1)">
       <use xlink:href="#DejaVuSans-31"/>
       <use x="63.623047" xlink:href="#DejaVuSans-30"/>
      </g>
     </g>
    </g>
    <g id="ytick_7">
     <g id="line2d_35">
      <path clip-path="url(#pc2247f5ca5)" d="M 51.14 114.951105 
L 498.115686 114.951105 
" style="fill:none;stroke:#b0b0b0;stroke-linecap:square;stroke-width:0.8;"/>
     </g>
     <g id="line2d_36">
      <g>
       <use style="stroke:#000000;stroke-width:0.8;" x="51.14" xlink:href="#mffae93fd29" y="114.951105"/>
      </g>
     </g>
     <g id="text_19">
      <!-- 12 -->
      <g transform="translate(31.415 118.750324)scale(0.1 -0.1)">
       <use xlink:href="#DejaVuSans-31"/>
       <use x="63.623047" xlink:href="#DejaVuSans-32"/>
      </g>
     </g>
    </g>
    <g id="ytick_8">
     <g id="line2d_37">
      <path clip-path="url(#pc2247f5ca5)" d="M 51.14 72.421987 
L 498.115686 72.421987 
" style="fill:none;stroke:#b0b0b0;stroke-linecap:square;stroke-width:0.8;"/>
     </g>
     <g id="line2d_38">
      <g>
       <use style="stroke:#000000;stroke-width:0.8;" x="51.14" xlink:href="#mffae93fd29" y="72.421987"/>
      </g>
     </g>
     <g id="text_20">
      <!-- 14 -->
      <g transform="translate(31.415 76.221205)scale(0.1 -0.1)">
       <use xlink:href="#DejaVuSans-31"/>
       <use x="63.623047" xlink:href="#DejaVuSans-34"/>
      </g>
     </g>
    </g>
    <g id="ytick_9">
     <g id="line2d_39">
      <path clip-path="url(#pc2247f5ca5)" d="M 51.14 29.892868 
L 498.115686 29.892868 
" style="fill:none;stroke:#b0b0b0;stroke-linecap:square;stroke-width:0.8;"/>
     </g>
     <g id="line2d_40">
      <g>
       <use style="stroke:#000000;stroke-width:0.8;" x="51.14" xlink:href="#mffae93fd29" y="29.892868"/>
      </g>
     </g>
     <g id="text_21">
      <!-- 16 -->
      <g transform="translate(31.415 33.692087)scale(0.1 -0.1)">
       <use xlink:href="#DejaVuSans-31"/>
       <use x="63.623047" xlink:href="#DejaVuSans-36"/>
      </g>
     </g>
    </g>
    <g id="text_22">
     <!-- $O-information\ (\beta = 1-\alpha)$ -->
     <g transform="translate(24.475 300.084)rotate(-90)scale(0.14 -0.14)">
      <defs>
       <path d="M 2919 4238 
Q 2400 4238 2003 3986 
Q 1606 3734 1313 3219 
Q 1125 2891 1026 2522 
Q 928 2153 928 1778 
Q 928 1128 1239 775 
Q 1550 422 2119 422 
Q 2631 422 3032 676 
Q 3434 931 3719 1434 
Q 3909 1772 4009 2142 
Q 4109 2513 4109 2881 
Q 4109 3528 3796 3883 
Q 3484 4238 2919 4238 
z
M 2100 -91 
Q 1241 -91 748 418 
Q 256 928 256 1813 
Q 256 2319 448 2847 
Q 641 3375 978 3788 
Q 1375 4272 1862 4511 
Q 2350 4750 2938 4750 
Q 3794 4750 4287 4245 
Q 4781 3741 4781 2869 
Q 4781 2331 4593 1812 
Q 4406 1294 4056 872 
Q 3656 384 3173 146 
Q 2691 -91 2100 -91 
z
" id="DejaVuSans-Oblique-4f" transform="scale(0.015625)"/>
       <path d="M 678 2272 
L 4684 2272 
L 4684 1741 
L 678 1741 
L 678 2272 
z
" id="DejaVuSans-2212" transform="scale(0.015625)"/>
       <path d="M 1172 4863 
L 1747 4863 
L 1606 4134 
L 1031 4134 
L 1172 4863 
z
M 909 3500 
L 1484 3500 
L 800 0 
L 225 0 
L 909 3500 
z
" id="DejaVuSans-Oblique-69" transform="scale(0.015625)"/>
       <path d="M 3566 2113 
L 3156 0 
L 2578 0 
L 2988 2091 
Q 3016 2238 3031 2350 
Q 3047 2463 3047 2528 
Q 3047 2791 2881 2937 
Q 2716 3084 2419 3084 
Q 1956 3084 1622 2776 
Q 1288 2469 1184 1941 
L 800 0 
L 225 0 
L 903 3500 
L 1478 3500 
L 1363 2950 
Q 1603 3253 1940 3418 
Q 2278 3584 2650 3584 
Q 3113 3584 3367 3334 
Q 3622 3084 3622 2631 
Q 3622 2519 3608 2391 
Q 3594 2263 3566 2113 
z
" id="DejaVuSans-Oblique-6e" transform="scale(0.015625)"/>
       <path d="M 3059 4863 
L 2969 4384 
L 2419 4384 
Q 2106 4384 1964 4261 
Q 1822 4138 1753 3809 
L 1691 3500 
L 2638 3500 
L 2553 3053 
L 1606 3053 
L 1013 0 
L 434 0 
L 1031 3053 
L 481 3053 
L 563 3500 
L 1113 3500 
L 1159 3744 
Q 1278 4363 1576 4613 
Q 1875 4863 2516 4863 
L 3059 4863 
z
" id="DejaVuSans-Oblique-66" transform="scale(0.015625)"/>
       <path d="M 1625 -91 
Q 1009 -91 651 289 
Q 294 669 294 1325 
Q 294 1706 417 2101 
Q 541 2497 738 2766 
Q 1047 3184 1428 3384 
Q 1809 3584 2291 3584 
Q 2888 3584 3255 3212 
Q 3622 2841 3622 2241 
Q 3622 1825 3500 1412 
Q 3378 1000 3181 728 
Q 2875 309 2494 109 
Q 2113 -91 1625 -91 
z
M 891 1344 
Q 891 869 1089 633 
Q 1288 397 1691 397 
Q 2269 397 2648 901 
Q 3028 1406 3028 2181 
Q 3028 2634 2825 2865 
Q 2622 3097 2228 3097 
Q 1903 3097 1650 2945 
Q 1397 2794 1197 2484 
Q 1050 2253 970 1956 
Q 891 1659 891 1344 
z
" id="DejaVuSans-Oblique-6f" transform="scale(0.015625)"/>
       <path d="M 2853 2969 
Q 2766 3016 2653 3041 
Q 2541 3066 2413 3066 
Q 1953 3066 1609 2717 
Q 1266 2369 1153 1784 
L 800 0 
L 225 0 
L 909 3500 
L 1484 3500 
L 1375 2956 
Q 1603 3259 1920 3421 
Q 2238 3584 2597 3584 
Q 2691 3584 2781 3573 
Q 2872 3563 2963 3538 
L 2853 2969 
z
" id="DejaVuSans-Oblique-72" transform="scale(0.015625)"/>
       <path d="M 5747 2113 
L 5338 0 
L 4763 0 
L 5166 2094 
Q 5191 2228 5203 2325 
Q 5216 2422 5216 2491 
Q 5216 2772 5059 2928 
Q 4903 3084 4622 3084 
Q 4203 3084 3875 2770 
Q 3547 2456 3450 1953 
L 3066 0 
L 2491 0 
L 2900 2094 
Q 2925 2209 2937 2307 
Q 2950 2406 2950 2484 
Q 2950 2769 2794 2926 
Q 2638 3084 2363 3084 
Q 1938 3084 1609 2770 
Q 1281 2456 1184 1953 
L 800 0 
L 225 0 
L 909 3500 
L 1484 3500 
L 1375 2956 
Q 1609 3263 1923 3423 
Q 2238 3584 2597 3584 
Q 2978 3584 3223 3384 
Q 3469 3184 3519 2828 
Q 3781 3197 4126 3390 
Q 4472 3584 4856 3584 
Q 5306 3584 5551 3325 
Q 5797 3066 5797 2591 
Q 5797 2488 5784 2364 
Q 5772 2241 5747 2113 
z
" id="DejaVuSans-Oblique-6d" transform="scale(0.015625)"/>
       <path d="M 3438 1997 
L 3047 0 
L 2472 0 
L 2578 531 
Q 2325 219 2001 64 
Q 1678 -91 1281 -91 
Q 834 -91 548 182 
Q 263 456 263 884 
Q 263 1497 752 1853 
Q 1241 2209 2100 2209 
L 2900 2209 
L 2931 2363 
Q 2938 2388 2941 2417 
Q 2944 2447 2944 2509 
Q 2944 2788 2717 2942 
Q 2491 3097 2081 3097 
Q 1800 3097 1504 3025 
Q 1209 2953 897 2809 
L 997 3341 
Q 1322 3463 1633 3523 
Q 1944 3584 2234 3584 
Q 2853 3584 3176 3315 
Q 3500 3047 3500 2534 
Q 3500 2431 3484 2292 
Q 3469 2153 3438 1997 
z
M 2816 1759 
L 2241 1759 
Q 1534 1759 1195 1570 
Q 856 1381 856 984 
Q 856 709 1029 553 
Q 1203 397 1509 397 
Q 1978 397 2328 733 
Q 2678 1069 2791 1631 
L 2816 1759 
z
" id="DejaVuSans-Oblique-61" transform="scale(0.015625)"/>
       <path d="M 2706 3500 
L 2619 3053 
L 1472 3053 
L 1100 1153 
Q 1081 1047 1072 975 
Q 1063 903 1063 863 
Q 1063 663 1183 572 
Q 1303 481 1569 481 
L 2150 481 
L 2053 0 
L 1503 0 
Q 991 0 739 200 
Q 488 400 488 806 
Q 488 878 497 964 
Q 506 1050 525 1153 
L 897 3053 
L 409 3053 
L 500 3500 
L 978 3500 
L 1172 4494 
L 1747 4494 
L 1556 3500 
L 2706 3500 
z
" id="DejaVuSans-Oblique-74" transform="scale(0.015625)"/>
       <path d="M 1984 4856 
Q 1566 4138 1362 3434 
Q 1159 2731 1159 2009 
Q 1159 1288 1364 580 
Q 1569 -128 1984 -844 
L 1484 -844 
Q 1016 -109 783 600 
Q 550 1309 550 2009 
Q 550 2706 781 3412 
Q 1013 4119 1484 4856 
L 1984 4856 
z
" id="DejaVuSans-28" transform="scale(0.015625)"/>
       <path d="M 872 216 
L 572 -1331 
L -6 -1331 
L 928 3478 
Q 1206 4903 2538 4903 
Q 3888 4903 3659 3700 
Q 3503 2844 2894 2531 
Q 3713 2250 3553 1416 
Q 3272 -69 1759 -66 
Q 1097 -63 872 216 
z
M 1019 966 
Q 1259 422 1875 425 
Q 2775 425 2966 1406 
Q 3138 2288 1675 2219 
L 1778 2750 
Q 2909 2731 3106 3750 
Q 3241 4438 2509 4434 
Q 1691 4434 1503 3459 
L 1019 966 
z
" id="DejaVuSans-Oblique-3b2" transform="scale(0.015625)"/>
       <path d="M 678 2906 
L 4684 2906 
L 4684 2381 
L 678 2381 
L 678 2906 
z
M 678 1631 
L 4684 1631 
L 4684 1100 
L 678 1100 
L 678 1631 
z
" id="DejaVuSans-3d" transform="scale(0.015625)"/>
       <path d="M 513 4856 
L 1013 4856 
Q 1481 4119 1714 3412 
Q 1947 2706 1947 2009 
Q 1947 1309 1714 600 
Q 1481 -109 1013 -844 
L 513 -844 
Q 928 -128 1133 580 
Q 1338 1288 1338 2009 
Q 1338 2731 1133 3434 
Q 928 4138 513 4856 
z
" id="DejaVuSans-29" transform="scale(0.015625)"/>
      </defs>
      <use transform="translate(0 0.390625)" xlink:href="#DejaVuSans-Oblique-4f"/>
      <use transform="translate(98.193359 0.390625)" xlink:href="#DejaVuSans-2212"/>
      <use transform="translate(201.464844 0.390625)" xlink:href="#DejaVuSans-Oblique-69"/>
      <use transform="translate(229.248047 0.390625)" xlink:href="#DejaVuSans-Oblique-6e"/>
      <use transform="translate(292.626953 0.390625)" xlink:href="#DejaVuSans-Oblique-66"/>
      <use transform="translate(327.832031 0.390625)" xlink:href="#DejaVuSans-Oblique-6f"/>
      <use transform="translate(389.013672 0.390625)" xlink:href="#DejaVuSans-Oblique-72"/>
      <use transform="translate(430.126953 0.390625)" xlink:href="#DejaVuSans-Oblique-6d"/>
      <use transform="translate(527.539062 0.390625)" xlink:href="#DejaVuSans-Oblique-61"/>
      <use transform="translate(588.818359 0.390625)" xlink:href="#DejaVuSans-Oblique-74"/>
      <use transform="translate(628.027344 0.390625)" xlink:href="#DejaVuSans-Oblique-69"/>
      <use transform="translate(655.810547 0.390625)" xlink:href="#DejaVuSans-Oblique-6f"/>
      <use transform="translate(716.992188 0.390625)" xlink:href="#DejaVuSans-Oblique-6e"/>
      <use transform="translate(812.841472 0.390625)" xlink:href="#DejaVuSans-28"/>
      <use transform="translate(851.855144 0.390625)" xlink:href="#DejaVuSans-Oblique-3b2"/>
      <use transform="translate(935.155925 0.390625)" xlink:href="#DejaVuSans-3d"/>
      <use transform="translate(1038.42741 0.390625)" xlink:href="#DejaVuSans-31"/>
      <use transform="translate(1121.532878 0.390625)" xlink:href="#DejaVuSans-2212"/>
      <use transform="translate(1224.804363 0.390625)" xlink:href="#DejaVuSans-Oblique-3b1"/>
      <use transform="translate(1290.722332 0.390625)" xlink:href="#DejaVuSans-29"/>
     </g>
    </g>
   </g>
   <g id="LineCollection_1">
    <path clip-path="url(#pc2247f5ca5)" d="M 51.14 370.125818 
L 498.115686 370.125818 
" style="fill:none;stroke:#000000;stroke-dasharray:5.55,2.4;stroke-dashoffset:0;stroke-width:1.5;"/>
   </g>
   <g id="line2d_41">
    <path clip-path="url(#pc2247f5ca5)" d="M 51.14 200.337753 
L 95.837569 238.275878 
L 140.535137 276.537864 
L 185.232706 302.105437 
L 229.930275 319.593785 
L 274.627843 332.121338 
L 319.325412 339.584133 
L 364.02298 341.673208 
L 408.720549 337.247507 
L 453.418118 323.416852 
L 498.115686 308.868108 
" style="fill:none;stroke:#4878d0;stroke-linecap:square;stroke-width:1.5;"/>
   </g>
   <g id="line2d_42">
    <path clip-path="url(#pc2247f5ca5)" d="M 51.14 125.173413 
L 95.837569 179.906527 
L 140.535137 235.10693 
L 185.232706 271.993153 
L 229.930275 297.223508 
L 274.627843 315.296921 
L 319.325412 326.063446 
L 364.02298 329.077366 
L 408.720549 322.692417 
L 453.418118 302.739007 
L 498.115686 281.749627 
" style="fill:none;stroke:#6acc64;stroke-linecap:square;stroke-width:1.5;"/>
   </g>
   <g id="line2d_43">
    <path clip-path="url(#pc2247f5ca5)" d="M 51.14 206.144811 
L 95.837569 233.6666 
L 140.535137 255.182012 
L 185.232706 268.666347 
L 229.930275 277.123705 
L 274.627843 281.198525 
L 319.325412 280.674667 
L 364.02298 274.812192 
L 408.720549 261.124881 
L 453.418118 236.227663 
L 498.115686 205.616002 
" style="fill:none;stroke:#d65f5f;stroke-linecap:square;stroke-width:1.5;"/>
   </g>
   <g id="line2d_44">
    <path clip-path="url(#pc2247f5ca5)" d="M 51.14 188.801405 
L 95.837569 216.018832 
L 140.535137 236.662534 
L 185.232706 249.396147 
L 229.930275 258.398969 
L 274.627843 263.83055 
L 319.325412 265.169758 
L 364.02298 261.535665 
L 408.720549 251.464467 
L 453.418118 229.846992 
L 498.115686 199.186572 
" style="fill:none;stroke:#ee854a;stroke-linecap:square;stroke-width:1.5;"/>
   </g>
   <g id="line2d_45"/>
   <g id="line2d_46"/>
   <g id="line2d_47"/>
   <g id="line2d_48"/>
   <g id="patch_3">
    <path d="M 51.14 386.44 
L 51.14 27.528 
" style="fill:none;stroke:#000000;stroke-linecap:square;stroke-linejoin:miter;stroke-width:0.8;"/>
   </g>
   <g id="patch_4">
    <path d="M 498.115686 386.44 
L 498.115686 27.528 
" style="fill:none;stroke:#000000;stroke-linecap:square;stroke-linejoin:miter;stroke-width:0.8;"/>
   </g>
   <g id="patch_5">
    <path d="M 51.14 386.44 
L 498.115686 386.44 
" style="fill:none;stroke:#000000;stroke-linecap:square;stroke-linejoin:miter;stroke-width:0.8;"/>
   </g>
   <g id="patch_6">
    <path d="M 51.14 27.528 
L 498.115686 27.528 
" style="fill:none;stroke:#000000;stroke-linecap:square;stroke-linejoin:miter;stroke-width:0.8;"/>
   </g>
   <g id="text_23">
    <!-- $(Z_{syn},X_1,X_2,X_3,X_4,X_5,X_6)$ -->
    <g transform="translate(198.187843 21.528)scale(0.12 -0.12)">
     <defs>
      <path d="M 838 4666 
L 4500 4666 
L 4409 4184 
L 794 531 
L 3769 531 
L 3669 0 
L -141 0 
L -50 481 
L 3566 4134 
L 738 4134 
L 838 4666 
z
" id="DejaVuSans-Oblique-5a" transform="scale(0.015625)"/>
      <path d="M 3200 3397 
L 3091 2853 
Q 2863 2978 2609 3040 
Q 2356 3103 2088 3103 
Q 1634 3103 1373 2948 
Q 1113 2794 1113 2528 
Q 1113 2219 1719 2053 
Q 1766 2041 1788 2034 
L 1972 1978 
Q 2547 1819 2739 1644 
Q 2931 1469 2931 1166 
Q 2931 609 2489 259 
Q 2047 -91 1331 -91 
Q 1053 -91 747 -37 
Q 441 16 72 128 
L 184 722 
Q 500 559 806 475 
Q 1113 391 1394 391 
Q 1816 391 2080 572 
Q 2344 753 2344 1031 
Q 2344 1331 1650 1516 
L 1591 1531 
L 1394 1581 
Q 956 1697 753 1886 
Q 550 2075 550 2369 
Q 550 2928 970 3256 
Q 1391 3584 2113 3584 
Q 2397 3584 2667 3537 
Q 2938 3491 3200 3397 
z
" id="DejaVuSans-Oblique-73" transform="scale(0.015625)"/>
      <path d="M 1588 -325 
Q 1188 -997 936 -1164 
Q 684 -1331 294 -1331 
L -159 -1331 
L -63 -850 
L 269 -850 
Q 509 -850 678 -719 
Q 847 -588 1056 -206 
L 1234 128 
L 459 3500 
L 1069 3500 
L 1650 819 
L 3256 3500 
L 3859 3500 
L 1588 -325 
z
" id="DejaVuSans-Oblique-79" transform="scale(0.015625)"/>
      <path d="M 750 794 
L 1409 794 
L 1409 256 
L 897 -744 
L 494 -744 
L 750 256 
L 750 794 
z
" id="DejaVuSans-2c" transform="scale(0.015625)"/>
      <path d="M 878 4666 
L 1516 4666 
L 2316 2981 
L 3763 4666 
L 4500 4666 
L 2578 2438 
L 3738 0 
L 3103 0 
L 2163 1966 
L 459 0 
L -275 0 
L 1906 2509 
L 878 4666 
z
" id="DejaVuSans-Oblique-58" transform="scale(0.015625)"/>
     </defs>
     <use transform="translate(0 0.125)" xlink:href="#DejaVuSans-28"/>
     <use transform="translate(39.013672 0.125)" xlink:href="#DejaVuSans-Oblique-5a"/>
     <use transform="translate(107.519531 -16.28125)scale(0.7)" xlink:href="#DejaVuSans-Oblique-73"/>
     <use transform="translate(143.989258 -16.28125)scale(0.7)" xlink:href="#DejaVuSans-Oblique-79"/>
     <use transform="translate(185.415039 -16.28125)scale(0.7)" xlink:href="#DejaVuSans-Oblique-6e"/>
     <use transform="translate(232.514648 0.125)" xlink:href="#DejaVuSans-2c"/>
     <use transform="translate(283.78418 0.125)" xlink:href="#DejaVuSans-Oblique-58"/>
     <use transform="translate(352.290039 -16.28125)scale(0.7)" xlink:href="#DejaVuSans-31"/>
     <use transform="translate(399.560547 0.125)" xlink:href="#DejaVuSans-2c"/>
     <use transform="translate(450.830078 0.125)" xlink:href="#DejaVuSans-Oblique-58"/>
     <use transform="translate(519.335938 -16.28125)scale(0.7)" xlink:href="#DejaVuSans-32"/>
     <use transform="translate(566.606445 0.125)" xlink:href="#DejaVuSans-2c"/>
     <use transform="translate(617.875977 0.125)" xlink:href="#DejaVuSans-Oblique-58"/>
     <use transform="translate(686.381836 -16.28125)scale(0.7)" xlink:href="#DejaVuSans-33"/>
     <use transform="translate(733.652344 0.125)" xlink:href="#DejaVuSans-2c"/>
     <use transform="translate(784.921875 0.125)" xlink:href="#DejaVuSans-Oblique-58"/>
     <use transform="translate(853.427734 -16.28125)scale(0.7)" xlink:href="#DejaVuSans-34"/>
     <use transform="translate(900.698242 0.125)" xlink:href="#DejaVuSans-2c"/>
     <use transform="translate(951.967773 0.125)" xlink:href="#DejaVuSans-Oblique-58"/>
     <use transform="translate(1020.473633 -16.28125)scale(0.7)" xlink:href="#DejaVuSans-35"/>
     <use transform="translate(1067.744141 0.125)" xlink:href="#DejaVuSans-2c"/>
     <use transform="translate(1119.013672 0.125)" xlink:href="#DejaVuSans-Oblique-58"/>
     <use transform="translate(1187.519531 -16.28125)scale(0.7)" xlink:href="#DejaVuSans-36"/>
     <use transform="translate(1234.790039 0.125)" xlink:href="#DejaVuSans-29"/>
    </g>
   </g>
   <g id="legend_1">
    <g id="patch_7">
     <path d="M 515.4552 88.033625 
L 585.42645 88.033625 
Q 587.82645 88.033625 587.82645 85.633625 
L 587.82645 35.928 
Q 587.82645 33.528 585.42645 33.528 
L 515.4552 33.528 
Q 513.0552 33.528 513.0552 35.928 
L 513.0552 85.633625 
Q 513.0552 88.033625 515.4552 88.033625 
z
" style="fill:#ffffff;opacity:0.8;stroke:#cccccc;stroke-linejoin:miter;"/>
    </g>
    <g id="text_24">
     <!-- GC -->
     <g transform="translate(543.0752 45.926437)scale(0.1 -0.1)">
      <defs>
       <path d="M 3809 666 
L 3809 1919 
L 2778 1919 
L 2778 2438 
L 4434 2438 
L 4434 434 
Q 4069 175 3628 42 
Q 3188 -91 2688 -91 
Q 1594 -91 976 548 
Q 359 1188 359 2328 
Q 359 3472 976 4111 
Q 1594 4750 2688 4750 
Q 3144 4750 3555 4637 
Q 3966 4525 4313 4306 
L 4313 3634 
Q 3963 3931 3569 4081 
Q 3175 4231 2741 4231 
Q 1884 4231 1454 3753 
Q 1025 3275 1025 2328 
Q 1025 1384 1454 906 
Q 1884 428 2741 428 
Q 3075 428 3337 486 
Q 3600 544 3809 666 
z
" id="DejaVuSans-47" transform="scale(0.015625)"/>
       <path d="M 4122 4306 
L 4122 3641 
Q 3803 3938 3442 4084 
Q 3081 4231 2675 4231 
Q 1875 4231 1450 3742 
Q 1025 3253 1025 2328 
Q 1025 1406 1450 917 
Q 1875 428 2675 428 
Q 3081 428 3442 575 
Q 3803 722 4122 1019 
L 4122 359 
Q 3791 134 3420 21 
Q 3050 -91 2638 -91 
Q 1578 -91 968 557 
Q 359 1206 359 2328 
Q 359 3453 968 4101 
Q 1578 4750 2638 4750 
Q 3056 4750 3426 4639 
Q 3797 4528 4122 4306 
z
" id="DejaVuSans-43" transform="scale(0.015625)"/>
      </defs>
      <use xlink:href="#DejaVuSans-47"/>
      <use x="77.490234" xlink:href="#DejaVuSans-43"/>
     </g>
    </g>
    <g id="line2d_49">
     <path d="M 517.8552 58.92425 
L 541.8552 58.92425 
" style="fill:none;stroke:#4878d0;stroke-linecap:square;stroke-width:2;"/>
    </g>
    <g id="line2d_50"/>
    <g id="text_25">
     <!-- THOI -->
     <g transform="translate(551.4552 63.12425)scale(0.12 -0.12)">
      <defs>
       <path d="M -19 4666 
L 3928 4666 
L 3928 4134 
L 2272 4134 
L 2272 0 
L 1638 0 
L 1638 4134 
L -19 4134 
L -19 4666 
z
" id="DejaVuSans-54" transform="scale(0.015625)"/>
       <path d="M 628 4666 
L 1259 4666 
L 1259 2753 
L 3553 2753 
L 3553 4666 
L 4184 4666 
L 4184 0 
L 3553 0 
L 3553 2222 
L 1259 2222 
L 1259 0 
L 628 0 
L 628 4666 
z
" id="DejaVuSans-48" transform="scale(0.015625)"/>
       <path d="M 2522 4238 
Q 1834 4238 1429 3725 
Q 1025 3213 1025 2328 
Q 1025 1447 1429 934 
Q 1834 422 2522 422 
Q 3209 422 3611 934 
Q 4013 1447 4013 2328 
Q 4013 3213 3611 3725 
Q 3209 4238 2522 4238 
z
M 2522 4750 
Q 3503 4750 4090 4092 
Q 4678 3434 4678 2328 
Q 4678 1225 4090 567 
Q 3503 -91 2522 -91 
Q 1538 -91 948 565 
Q 359 1222 359 2328 
Q 359 3434 948 4092 
Q 1538 4750 2522 4750 
z
" id="DejaVuSans-4f" transform="scale(0.015625)"/>
       <path d="M 628 4666 
L 1259 4666 
L 1259 0 
L 628 0 
L 628 4666 
z
" id="DejaVuSans-49" transform="scale(0.015625)"/>
      </defs>
      <use xlink:href="#DejaVuSans-54"/>
      <use x="61.083984" xlink:href="#DejaVuSans-48"/>
      <use x="136.279297" xlink:href="#DejaVuSans-4f"/>
      <use x="214.990234" xlink:href="#DejaVuSans-49"/>
     </g>
    </g>
    <g id="line2d_51">
     <path d="M 517.8552 76.538 
L 541.8552 76.538 
" style="fill:none;stroke:#6acc64;stroke-linecap:square;stroke-width:2;"/>
    </g>
    <g id="line2d_52"/>
    <g id="text_26">
     <!-- GCMI -->
     <g transform="translate(551.4552 80.738)scale(0.12 -0.12)">
      <defs>
       <path d="M 628 4666 
L 1569 4666 
L 2759 1491 
L 3956 4666 
L 4897 4666 
L 4897 0 
L 4281 0 
L 4281 4097 
L 3078 897 
L 2444 897 
L 1241 4097 
L 1241 0 
L 628 0 
L 628 4666 
z
" id="DejaVuSans-4d" transform="scale(0.015625)"/>
      </defs>
      <use xlink:href="#DejaVuSans-47"/>
      <use x="77.490234" xlink:href="#DejaVuSans-43"/>
      <use x="147.314453" xlink:href="#DejaVuSans-4d"/>
      <use x="233.59375" xlink:href="#DejaVuSans-49"/>
     </g>
    </g>
   </g>
   <g id="legend_2">
    <g id="patch_8">
     <path d="M 515.4552 159.816025 
L 592.5627 159.816025 
Q 594.9627 159.816025 594.9627 157.416025 
L 594.9627 107.7104 
Q 594.9627 105.3104 592.5627 105.3104 
L 515.4552 105.3104 
Q 513.0552 105.3104 513.0552 107.7104 
L 513.0552 157.416025 
Q 513.0552 159.816025 515.4552 159.816025 
z
" style="fill:#ffffff;opacity:0.8;stroke:#cccccc;stroke-linejoin:miter;"/>
    </g>
    <g id="text_27">
     <!-- KSG -->
     <g transform="translate(543.681606 117.708837)scale(0.1 -0.1)">
      <defs>
       <path d="M 628 4666 
L 1259 4666 
L 1259 2694 
L 3353 4666 
L 4166 4666 
L 1850 2491 
L 4331 0 
L 3500 0 
L 1259 2247 
L 1259 0 
L 628 0 
L 628 4666 
z
" id="DejaVuSans-4b" transform="scale(0.015625)"/>
       <path d="M 3425 4513 
L 3425 3897 
Q 3066 4069 2747 4153 
Q 2428 4238 2131 4238 
Q 1616 4238 1336 4038 
Q 1056 3838 1056 3469 
Q 1056 3159 1242 3001 
Q 1428 2844 1947 2747 
L 2328 2669 
Q 3034 2534 3370 2195 
Q 3706 1856 3706 1288 
Q 3706 609 3251 259 
Q 2797 -91 1919 -91 
Q 1588 -91 1214 -16 
Q 841 59 441 206 
L 441 856 
Q 825 641 1194 531 
Q 1563 422 1919 422 
Q 2459 422 2753 634 
Q 3047 847 3047 1241 
Q 3047 1584 2836 1778 
Q 2625 1972 2144 2069 
L 1759 2144 
Q 1053 2284 737 2584 
Q 422 2884 422 3419 
Q 422 4038 858 4394 
Q 1294 4750 2059 4750 
Q 2388 4750 2728 4690 
Q 3069 4631 3425 4513 
z
" id="DejaVuSans-53" transform="scale(0.015625)"/>
      </defs>
      <use xlink:href="#DejaVuSans-4b"/>
      <use x="65.576172" xlink:href="#DejaVuSans-53"/>
      <use x="129.052734" xlink:href="#DejaVuSans-47"/>
     </g>
    </g>
    <g id="line2d_53">
     <path d="M 517.8552 130.70665 
L 541.8552 130.70665 
" style="fill:none;stroke:#ee854a;stroke-linecap:square;stroke-width:2;"/>
    </g>
    <g id="line2d_54"/>
    <g id="text_28">
     <!-- NPEET -->
     <g transform="translate(551.4552 134.90665)scale(0.12 -0.12)">
      <defs>
       <path d="M 628 4666 
L 1478 4666 
L 3547 763 
L 3547 4666 
L 4159 4666 
L 4159 0 
L 3309 0 
L 1241 3903 
L 1241 0 
L 628 0 
L 628 4666 
z
" id="DejaVuSans-4e" transform="scale(0.015625)"/>
       <path d="M 1259 4147 
L 1259 2394 
L 2053 2394 
Q 2494 2394 2734 2622 
Q 2975 2850 2975 3272 
Q 2975 3691 2734 3919 
Q 2494 4147 2053 4147 
L 1259 4147 
z
M 628 4666 
L 2053 4666 
Q 2838 4666 3239 4311 
Q 3641 3956 3641 3272 
Q 3641 2581 3239 2228 
Q 2838 1875 2053 1875 
L 1259 1875 
L 1259 0 
L 628 0 
L 628 4666 
z
" id="DejaVuSans-50" transform="scale(0.015625)"/>
       <path d="M 628 4666 
L 3578 4666 
L 3578 4134 
L 1259 4134 
L 1259 2753 
L 3481 2753 
L 3481 2222 
L 1259 2222 
L 1259 531 
L 3634 531 
L 3634 0 
L 628 0 
L 628 4666 
z
" id="DejaVuSans-45" transform="scale(0.015625)"/>
      </defs>
      <use xlink:href="#DejaVuSans-4e"/>
      <use x="74.804688" xlink:href="#DejaVuSans-50"/>
      <use x="135.107422" xlink:href="#DejaVuSans-45"/>
      <use x="198.291016" xlink:href="#DejaVuSans-45"/>
      <use x="261.474609" xlink:href="#DejaVuSans-54"/>
     </g>
    </g>
    <g id="line2d_55">
     <path d="M 517.8552 148.3204 
L 541.8552 148.3204 
" style="fill:none;stroke:#d65f5f;stroke-linecap:square;stroke-width:2;"/>
    </g>
    <g id="line2d_56"/>
    <g id="text_29">
     <!-- JDIT -->
     <g transform="translate(551.4552 152.5204)scale(0.12 -0.12)">
      <defs>
       <path d="M 628 4666 
L 1259 4666 
L 1259 325 
Q 1259 -519 939 -900 
Q 619 -1281 -91 -1281 
L -331 -1281 
L -331 -750 
L -134 -750 
Q 284 -750 456 -515 
Q 628 -281 628 325 
L 628 4666 
z
" id="DejaVuSans-4a" transform="scale(0.015625)"/>
       <path d="M 1259 4147 
L 1259 519 
L 2022 519 
Q 2988 519 3436 956 
Q 3884 1394 3884 2338 
Q 3884 3275 3436 3711 
Q 2988 4147 2022 4147 
L 1259 4147 
z
M 628 4666 
L 1925 4666 
Q 3281 4666 3915 4102 
Q 4550 3538 4550 2338 
Q 4550 1131 3912 565 
Q 3275 0 1925 0 
L 628 0 
L 628 4666 
z
" id="DejaVuSans-44" transform="scale(0.015625)"/>
      </defs>
      <use xlink:href="#DejaVuSans-4a"/>
      <use x="29.492188" xlink:href="#DejaVuSans-44"/>
      <use x="106.494141" xlink:href="#DejaVuSans-49"/>
      <use x="135.986328" xlink:href="#DejaVuSans-54"/>
     </g>
    </g>
   </g>
  </g>
  <g id="axes_2">
   <g id="patch_9">
    <path d="M 612.748333 386.44 
L 1059.72402 386.44 
L 1059.72402 27.528 
L 612.748333 27.528 
z
" style="fill:#ffffff;"/>
   </g>
   <g id="PolyCollection_5"/>
   <g id="PolyCollection_6"/>
   <g id="PolyCollection_7"/>
   <g id="PolyCollection_8"/>
   <g id="matplotlib.axis_3">
    <g id="xtick_12">
     <g id="line2d_57">
      <path clip-path="url(#pb9fee72379)" d="M 612.748333 386.44 
L 612.748333 27.528 
" style="fill:none;stroke:#b0b0b0;stroke-linecap:square;stroke-width:0.8;"/>
     </g>
     <g id="line2d_58">
      <g>
       <use style="stroke:#000000;stroke-width:0.8;" x="612.748333" xlink:href="#m7b4853de34" y="386.44"/>
      </g>
     </g>
     <g id="text_30">
      <!-- 0.0 -->
      <g transform="translate(604.796771 401.038437)scale(0.1 -0.1)">
       <use xlink:href="#DejaVuSans-30"/>
       <use x="63.623047" xlink:href="#DejaVuSans-2e"/>
       <use x="95.410156" xlink:href="#DejaVuSans-30"/>
      </g>
     </g>
    </g>
    <g id="xtick_13">
     <g id="line2d_59">
      <path clip-path="url(#pb9fee72379)" d="M 657.445902 386.44 
L 657.445902 27.528 
" style="fill:none;stroke:#b0b0b0;stroke-linecap:square;stroke-width:0.8;"/>
     </g>
     <g id="line2d_60">
      <g>
       <use style="stroke:#000000;stroke-width:0.8;" x="657.445902" xlink:href="#m7b4853de34" y="386.44"/>
      </g>
     </g>
     <g id="text_31">
      <!-- 0.1 -->
      <g transform="translate(649.494339 401.038437)scale(0.1 -0.1)">
       <use xlink:href="#DejaVuSans-30"/>
       <use x="63.623047" xlink:href="#DejaVuSans-2e"/>
       <use x="95.410156" xlink:href="#DejaVuSans-31"/>
      </g>
     </g>
    </g>
    <g id="xtick_14">
     <g id="line2d_61">
      <path clip-path="url(#pb9fee72379)" d="M 702.143471 386.44 
L 702.143471 27.528 
" style="fill:none;stroke:#b0b0b0;stroke-linecap:square;stroke-width:0.8;"/>
     </g>
     <g id="line2d_62">
      <g>
       <use style="stroke:#000000;stroke-width:0.8;" x="702.143471" xlink:href="#m7b4853de34" y="386.44"/>
      </g>
     </g>
     <g id="text_32">
      <!-- 0.2 -->
      <g transform="translate(694.191908 401.038437)scale(0.1 -0.1)">
       <use xlink:href="#DejaVuSans-30"/>
       <use x="63.623047" xlink:href="#DejaVuSans-2e"/>
       <use x="95.410156" xlink:href="#DejaVuSans-32"/>
      </g>
     </g>
    </g>
    <g id="xtick_15">
     <g id="line2d_63">
      <path clip-path="url(#pb9fee72379)" d="M 746.841039 386.44 
L 746.841039 27.528 
" style="fill:none;stroke:#b0b0b0;stroke-linecap:square;stroke-width:0.8;"/>
     </g>
     <g id="line2d_64">
      <g>
       <use style="stroke:#000000;stroke-width:0.8;" x="746.841039" xlink:href="#m7b4853de34" y="386.44"/>
      </g>
     </g>
     <g id="text_33">
      <!-- 0.3 -->
      <g transform="translate(738.889477 401.038437)scale(0.1 -0.1)">
       <use xlink:href="#DejaVuSans-30"/>
       <use x="63.623047" xlink:href="#DejaVuSans-2e"/>
       <use x="95.410156" xlink:href="#DejaVuSans-33"/>
      </g>
     </g>
    </g>
    <g id="xtick_16">
     <g id="line2d_65">
      <path clip-path="url(#pb9fee72379)" d="M 791.538608 386.44 
L 791.538608 27.528 
" style="fill:none;stroke:#b0b0b0;stroke-linecap:square;stroke-width:0.8;"/>
     </g>
     <g id="line2d_66">
      <g>
       <use style="stroke:#000000;stroke-width:0.8;" x="791.538608" xlink:href="#m7b4853de34" y="386.44"/>
      </g>
     </g>
     <g id="text_34">
      <!-- 0.4 -->
      <g transform="translate(783.587045 401.038437)scale(0.1 -0.1)">
       <use xlink:href="#DejaVuSans-30"/>
       <use x="63.623047" xlink:href="#DejaVuSans-2e"/>
       <use x="95.410156" xlink:href="#DejaVuSans-34"/>
      </g>
     </g>
    </g>
    <g id="xtick_17">
     <g id="line2d_67">
      <path clip-path="url(#pb9fee72379)" d="M 836.236176 386.44 
L 836.236176 27.528 
" style="fill:none;stroke:#b0b0b0;stroke-linecap:square;stroke-width:0.8;"/>
     </g>
     <g id="line2d_68">
      <g>
       <use style="stroke:#000000;stroke-width:0.8;" x="836.236176" xlink:href="#m7b4853de34" y="386.44"/>
      </g>
     </g>
     <g id="text_35">
      <!-- 0.5 -->
      <g transform="translate(828.284614 401.038437)scale(0.1 -0.1)">
       <use xlink:href="#DejaVuSans-30"/>
       <use x="63.623047" xlink:href="#DejaVuSans-2e"/>
       <use x="95.410156" xlink:href="#DejaVuSans-35"/>
      </g>
     </g>
    </g>
    <g id="xtick_18">
     <g id="line2d_69">
      <path clip-path="url(#pb9fee72379)" d="M 880.933745 386.44 
L 880.933745 27.528 
" style="fill:none;stroke:#b0b0b0;stroke-linecap:square;stroke-width:0.8;"/>
     </g>
     <g id="line2d_70">
      <g>
       <use style="stroke:#000000;stroke-width:0.8;" x="880.933745" xlink:href="#m7b4853de34" y="386.44"/>
      </g>
     </g>
     <g id="text_36">
      <!-- 0.6 -->
      <g transform="translate(872.982183 401.038437)scale(0.1 -0.1)">
       <use xlink:href="#DejaVuSans-30"/>
       <use x="63.623047" xlink:href="#DejaVuSans-2e"/>
       <use x="95.410156" xlink:href="#DejaVuSans-36"/>
      </g>
     </g>
    </g>
    <g id="xtick_19">
     <g id="line2d_71">
      <path clip-path="url(#pb9fee72379)" d="M 925.631314 386.44 
L 925.631314 27.528 
" style="fill:none;stroke:#b0b0b0;stroke-linecap:square;stroke-width:0.8;"/>
     </g>
     <g id="line2d_72">
      <g>
       <use style="stroke:#000000;stroke-width:0.8;" x="925.631314" xlink:href="#m7b4853de34" y="386.44"/>
      </g>
     </g>
     <g id="text_37">
      <!-- 0.7 -->
      <g transform="translate(917.679751 401.038437)scale(0.1 -0.1)">
       <use xlink:href="#DejaVuSans-30"/>
       <use x="63.623047" xlink:href="#DejaVuSans-2e"/>
       <use x="95.410156" xlink:href="#DejaVuSans-37"/>
      </g>
     </g>
    </g>
    <g id="xtick_20">
     <g id="line2d_73">
      <path clip-path="url(#pb9fee72379)" d="M 970.328882 386.44 
L 970.328882 27.528 
" style="fill:none;stroke:#b0b0b0;stroke-linecap:square;stroke-width:0.8;"/>
     </g>
     <g id="line2d_74">
      <g>
       <use style="stroke:#000000;stroke-width:0.8;" x="970.328882" xlink:href="#m7b4853de34" y="386.44"/>
      </g>
     </g>
     <g id="text_38">
      <!-- 0.8 -->
      <g transform="translate(962.37732 401.038437)scale(0.1 -0.1)">
       <use xlink:href="#DejaVuSans-30"/>
       <use x="63.623047" xlink:href="#DejaVuSans-2e"/>
       <use x="95.410156" xlink:href="#DejaVuSans-38"/>
      </g>
     </g>
    </g>
    <g id="xtick_21">
     <g id="line2d_75">
      <path clip-path="url(#pb9fee72379)" d="M 1015.026451 386.44 
L 1015.026451 27.528 
" style="fill:none;stroke:#b0b0b0;stroke-linecap:square;stroke-width:0.8;"/>
     </g>
     <g id="line2d_76">
      <g>
       <use style="stroke:#000000;stroke-width:0.8;" x="1015.026451" xlink:href="#m7b4853de34" y="386.44"/>
      </g>
     </g>
     <g id="text_39">
      <!-- 0.9 -->
      <g transform="translate(1007.074888 401.038437)scale(0.1 -0.1)">
       <use xlink:href="#DejaVuSans-30"/>
       <use x="63.623047" xlink:href="#DejaVuSans-2e"/>
       <use x="95.410156" xlink:href="#DejaVuSans-39"/>
      </g>
     </g>
    </g>
    <g id="xtick_22">
     <g id="line2d_77">
      <path clip-path="url(#pb9fee72379)" d="M 1059.72402 386.44 
L 1059.72402 27.528 
" style="fill:none;stroke:#b0b0b0;stroke-linecap:square;stroke-width:0.8;"/>
     </g>
     <g id="line2d_78">
      <g>
       <use style="stroke:#000000;stroke-width:0.8;" x="1059.72402" xlink:href="#m7b4853de34" y="386.44"/>
      </g>
     </g>
     <g id="text_40">
      <!-- 1.0 -->
      <g transform="translate(1051.772457 401.038437)scale(0.1 -0.1)">
       <use xlink:href="#DejaVuSans-31"/>
       <use x="63.623047" xlink:href="#DejaVuSans-2e"/>
       <use x="95.410156" xlink:href="#DejaVuSans-30"/>
      </g>
     </g>
    </g>
    <g id="text_41">
     <!-- $\alpha$ -->
     <g transform="translate(831.616176 417.755938)scale(0.14 -0.14)">
      <use transform="translate(0 0.84375)" xlink:href="#DejaVuSans-Oblique-3b1"/>
     </g>
    </g>
   </g>
   <g id="matplotlib.axis_4">
    <g id="ytick_10">
     <g id="line2d_79">
      <path clip-path="url(#pb9fee72379)" d="M 612.748333 370.125818 
L 1059.72402 370.125818 
" style="fill:none;stroke:#b0b0b0;stroke-linecap:square;stroke-width:0.8;"/>
     </g>
     <g id="line2d_80">
      <g>
       <use style="stroke:#000000;stroke-width:0.8;" x="612.748333" xlink:href="#mffae93fd29" y="370.125818"/>
      </g>
     </g>
    </g>
    <g id="ytick_11">
     <g id="line2d_81">
      <path clip-path="url(#pb9fee72379)" d="M 612.748333 327.596699 
L 1059.72402 327.596699 
" style="fill:none;stroke:#b0b0b0;stroke-linecap:square;stroke-width:0.8;"/>
     </g>
     <g id="line2d_82">
      <g>
       <use style="stroke:#000000;stroke-width:0.8;" x="612.748333" xlink:href="#mffae93fd29" y="327.596699"/>
      </g>
     </g>
    </g>
    <g id="ytick_12">
     <g id="line2d_83">
      <path clip-path="url(#pb9fee72379)" d="M 612.748333 285.067581 
L 1059.72402 285.067581 
" style="fill:none;stroke:#b0b0b0;stroke-linecap:square;stroke-width:0.8;"/>
     </g>
     <g id="line2d_84">
      <g>
       <use style="stroke:#000000;stroke-width:0.8;" x="612.748333" xlink:href="#mffae93fd29" y="285.067581"/>
      </g>
     </g>
    </g>
    <g id="ytick_13">
     <g id="line2d_85">
      <path clip-path="url(#pb9fee72379)" d="M 612.748333 242.538462 
L 1059.72402 242.538462 
" style="fill:none;stroke:#b0b0b0;stroke-linecap:square;stroke-width:0.8;"/>
     </g>
     <g id="line2d_86">
      <g>
       <use style="stroke:#000000;stroke-width:0.8;" x="612.748333" xlink:href="#mffae93fd29" y="242.538462"/>
      </g>
     </g>
    </g>
    <g id="ytick_14">
     <g id="line2d_87">
      <path clip-path="url(#pb9fee72379)" d="M 612.748333 200.009343 
L 1059.72402 200.009343 
" style="fill:none;stroke:#b0b0b0;stroke-linecap:square;stroke-width:0.8;"/>
     </g>
     <g id="line2d_88">
      <g>
       <use style="stroke:#000000;stroke-width:0.8;" x="612.748333" xlink:href="#mffae93fd29" y="200.009343"/>
      </g>
     </g>
    </g>
    <g id="ytick_15">
     <g id="line2d_89">
      <path clip-path="url(#pb9fee72379)" d="M 612.748333 157.480224 
L 1059.72402 157.480224 
" style="fill:none;stroke:#b0b0b0;stroke-linecap:square;stroke-width:0.8;"/>
     </g>
     <g id="line2d_90">
      <g>
       <use style="stroke:#000000;stroke-width:0.8;" x="612.748333" xlink:href="#mffae93fd29" y="157.480224"/>
      </g>
     </g>
    </g>
    <g id="ytick_16">
     <g id="line2d_91">
      <path clip-path="url(#pb9fee72379)" d="M 612.748333 114.951105 
L 1059.72402 114.951105 
" style="fill:none;stroke:#b0b0b0;stroke-linecap:square;stroke-width:0.8;"/>
     </g>
     <g id="line2d_92">
      <g>
       <use style="stroke:#000000;stroke-width:0.8;" x="612.748333" xlink:href="#mffae93fd29" y="114.951105"/>
      </g>
     </g>
    </g>
    <g id="ytick_17">
     <g id="line2d_93">
      <path clip-path="url(#pb9fee72379)" d="M 612.748333 72.421987 
L 1059.72402 72.421987 
" style="fill:none;stroke:#b0b0b0;stroke-linecap:square;stroke-width:0.8;"/>
     </g>
     <g id="line2d_94">
      <g>
       <use style="stroke:#000000;stroke-width:0.8;" x="612.748333" xlink:href="#mffae93fd29" y="72.421987"/>
      </g>
     </g>
    </g>
    <g id="ytick_18">
     <g id="line2d_95">
      <path clip-path="url(#pb9fee72379)" d="M 612.748333 29.892868 
L 1059.72402 29.892868 
" style="fill:none;stroke:#b0b0b0;stroke-linecap:square;stroke-width:0.8;"/>
     </g>
     <g id="line2d_96">
      <g>
       <use style="stroke:#000000;stroke-width:0.8;" x="612.748333" xlink:href="#mffae93fd29" y="29.892868"/>
      </g>
     </g>
    </g>
   </g>
   <g id="LineCollection_2">
    <path clip-path="url(#pb9fee72379)" d="M 612.748333 370.125818 
L 1059.72402 370.125818 
" style="fill:none;stroke:#000000;stroke-dasharray:5.55,2.4;stroke-dashoffset:0;stroke-width:1.5;"/>
   </g>
   <g id="line2d_97">
    <path clip-path="url(#pb9fee72379)" d="M 612.748333 143.963261 
L 657.445902 190.556228 
L 702.143471 234.488902 
L 746.841039 264.248223 
L 791.538608 285.8494 
L 836.236176 303.501803 
L 880.933745 317.333025 
L 925.631314 326.636187 
L 970.328882 330.058614 
L 1015.026451 324.049648 
L 1059.72402 308.868274 
" style="fill:none;stroke:#4878d0;stroke-linecap:square;stroke-width:1.5;"/>
   </g>
   <g id="line2d_98">
    <path clip-path="url(#pb9fee72379)" d="M 612.748333 43.842182 
L 657.445902 111.061588 
L 702.143471 174.443055 
L 746.841039 217.376726 
L 791.538608 248.540651 
L 836.236176 274.007689 
L 880.933745 293.96195 
L 925.631314 307.383503 
L 970.328882 312.321024 
L 1015.026451 303.651939 
L 1059.72402 281.749839 
" style="fill:none;stroke:#6acc64;stroke-linecap:square;stroke-width:1.5;"/>
   </g>
   <g id="line2d_99">
    <path clip-path="url(#pb9fee72379)" d="M 612.748333 153.999973 
L 657.445902 184.785196 
L 702.143471 209.092508 
L 746.841039 225.429926 
L 791.538608 237.294898 
L 836.236176 245.72075 
L 880.933745 251.235293 
L 925.631314 253.666315 
L 970.328882 250.669876 
L 1015.026451 240.559382 
L 1059.72402 222.946386 
" style="fill:none;stroke:#d65f5f;stroke-linecap:square;stroke-width:1.5;"/>
   </g>
   <g id="line2d_100">
    <path clip-path="url(#pb9fee72379)" d="M 612.748333 121.016323 
L 657.445902 155.440361 
L 702.143471 181.599162 
L 746.841039 199.051649 
L 791.538608 212.386641 
L 836.236176 222.393009 
L 880.933745 228.491268 
L 925.631314 230.761796 
L 970.328882 227.516856 
L 1015.026451 215.005762 
L 1059.72402 189.966846 
" style="fill:none;stroke:#ee854a;stroke-linecap:square;stroke-width:1.5;"/>
   </g>
   <g id="line2d_101"/>
   <g id="line2d_102"/>
   <g id="line2d_103"/>
   <g id="line2d_104"/>
   <g id="patch_10">
    <path d="M 612.748333 386.44 
L 612.748333 27.528 
" style="fill:none;stroke:#000000;stroke-linecap:square;stroke-linejoin:miter;stroke-width:0.8;"/>
   </g>
   <g id="patch_11">
    <path d="M 1059.72402 386.44 
L 1059.72402 27.528 
" style="fill:none;stroke:#000000;stroke-linecap:square;stroke-linejoin:miter;stroke-width:0.8;"/>
   </g>
   <g id="patch_12">
    <path d="M 612.748333 386.44 
L 1059.72402 386.44 
" style="fill:none;stroke:#000000;stroke-linecap:square;stroke-linejoin:miter;stroke-width:0.8;"/>
   </g>
   <g id="patch_13">
    <path d="M 612.748333 27.528 
L 1059.72402 27.528 
" style="fill:none;stroke:#000000;stroke-linecap:square;stroke-linejoin:miter;stroke-width:0.8;"/>
   </g>
   <g id="text_42">
    <!-- $(Z_{syn},Z_{red},X_1,X_2,X_3,X_4,X_5,X_6)$ -->
    <g transform="translate(745.456176 21.528)scale(0.12 -0.12)">
     <defs>
      <path d="M 3078 2063 
Q 3088 2113 3092 2166 
Q 3097 2219 3097 2272 
Q 3097 2653 2873 2875 
Q 2650 3097 2266 3097 
Q 1838 3097 1509 2826 
Q 1181 2556 1013 2059 
L 3078 2063 
z
M 3578 1613 
L 903 1613 
Q 884 1494 878 1425 
Q 872 1356 872 1306 
Q 872 872 1139 634 
Q 1406 397 1894 397 
Q 2269 397 2603 481 
Q 2938 566 3225 728 
L 3116 159 
Q 2806 34 2476 -28 
Q 2147 -91 1806 -91 
Q 1078 -91 686 257 
Q 294 606 294 1247 
Q 294 1794 489 2264 
Q 684 2734 1063 3103 
Q 1306 3334 1642 3459 
Q 1978 3584 2356 3584 
Q 2950 3584 3301 3228 
Q 3653 2872 3653 2272 
Q 3653 2128 3634 1964 
Q 3616 1800 3578 1613 
z
" id="DejaVuSans-Oblique-65" transform="scale(0.015625)"/>
      <path d="M 2675 525 
Q 2444 222 2128 65 
Q 1813 -91 1428 -91 
Q 903 -91 598 267 
Q 294 625 294 1247 
Q 294 1766 478 2236 
Q 663 2706 1013 3078 
Q 1244 3325 1534 3454 
Q 1825 3584 2144 3584 
Q 2481 3584 2739 3421 
Q 2997 3259 3138 2956 
L 3513 4863 
L 4091 4863 
L 3144 0 
L 2566 0 
L 2675 525 
z
M 891 1350 
Q 891 897 1095 644 
Q 1300 391 1663 391 
Q 1931 391 2161 520 
Q 2391 650 2566 903 
Q 2750 1166 2856 1509 
Q 2963 1853 2963 2188 
Q 2963 2622 2758 2865 
Q 2553 3109 2194 3109 
Q 1922 3109 1687 2981 
Q 1453 2853 1288 2613 
Q 1106 2353 998 2009 
Q 891 1666 891 1350 
z
" id="DejaVuSans-Oblique-64" transform="scale(0.015625)"/>
     </defs>
     <use transform="translate(0 0.125)" xlink:href="#DejaVuSans-28"/>
     <use transform="translate(39.013672 0.125)" xlink:href="#DejaVuSans-Oblique-5a"/>
     <use transform="translate(107.519531 -16.28125)scale(0.7)" xlink:href="#DejaVuSans-Oblique-73"/>
     <use transform="translate(143.989258 -16.28125)scale(0.7)" xlink:href="#DejaVuSans-Oblique-79"/>
     <use transform="translate(185.415039 -16.28125)scale(0.7)" xlink:href="#DejaVuSans-Oblique-6e"/>
     <use transform="translate(232.514648 0.125)" xlink:href="#DejaVuSans-2c"/>
     <use transform="translate(283.78418 0.125)" xlink:href="#DejaVuSans-Oblique-5a"/>
     <use transform="translate(352.290039 -16.28125)scale(0.7)" xlink:href="#DejaVuSans-Oblique-72"/>
     <use transform="translate(381.069336 -16.28125)scale(0.7)" xlink:href="#DejaVuSans-Oblique-65"/>
     <use transform="translate(424.135742 -16.28125)scale(0.7)" xlink:href="#DejaVuSans-Oblique-64"/>
     <use transform="translate(471.303711 0.125)" xlink:href="#DejaVuSans-2c"/>
     <use transform="translate(522.573242 0.125)" xlink:href="#DejaVuSans-Oblique-58"/>
     <use transform="translate(591.079102 -16.28125)scale(0.7)" xlink:href="#DejaVuSans-31"/>
     <use transform="translate(638.349609 0.125)" xlink:href="#DejaVuSans-2c"/>
     <use transform="translate(689.619141 0.125)" xlink:href="#DejaVuSans-Oblique-58"/>
     <use transform="translate(758.125 -16.28125)scale(0.7)" xlink:href="#DejaVuSans-32"/>
     <use transform="translate(805.395508 0.125)" xlink:href="#DejaVuSans-2c"/>
     <use transform="translate(856.665039 0.125)" xlink:href="#DejaVuSans-Oblique-58"/>
     <use transform="translate(925.170898 -16.28125)scale(0.7)" xlink:href="#DejaVuSans-33"/>
     <use transform="translate(972.441406 0.125)" xlink:href="#DejaVuSans-2c"/>
     <use transform="translate(1023.710938 0.125)" xlink:href="#DejaVuSans-Oblique-58"/>
     <use transform="translate(1092.216797 -16.28125)scale(0.7)" xlink:href="#DejaVuSans-34"/>
     <use transform="translate(1139.487305 0.125)" xlink:href="#DejaVuSans-2c"/>
     <use transform="translate(1190.756836 0.125)" xlink:href="#DejaVuSans-Oblique-58"/>
     <use transform="translate(1259.262695 -16.28125)scale(0.7)" xlink:href="#DejaVuSans-35"/>
     <use transform="translate(1306.533203 0.125)" xlink:href="#DejaVuSans-2c"/>
     <use transform="translate(1357.802734 0.125)" xlink:href="#DejaVuSans-Oblique-58"/>
     <use transform="translate(1426.308594 -16.28125)scale(0.7)" xlink:href="#DejaVuSans-36"/>
     <use transform="translate(1473.579102 0.125)" xlink:href="#DejaVuSans-29"/>
    </g>
   </g>
   <g id="legend_3">
    <g id="patch_14">
     <path d="M 1077.063533 88.033625 
L 1147.034783 88.033625 
Q 1149.434783 88.033625 1149.434783 85.633625 
L 1149.434783 35.928 
Q 1149.434783 33.528 1147.034783 33.528 
L 1077.063533 33.528 
Q 1074.663533 33.528 1074.663533 35.928 
L 1074.663533 85.633625 
Q 1074.663533 88.033625 1077.063533 88.033625 
z
" style="fill:#ffffff;opacity:0.8;stroke:#cccccc;stroke-linejoin:miter;"/>
    </g>
    <g id="text_43">
     <!-- GC -->
     <g transform="translate(1104.683533 45.926437)scale(0.1 -0.1)">
      <use xlink:href="#DejaVuSans-47"/>
      <use x="77.490234" xlink:href="#DejaVuSans-43"/>
     </g>
    </g>
    <g id="line2d_105">
     <path d="M 1079.463533 58.92425 
L 1103.463533 58.92425 
" style="fill:none;stroke:#4878d0;stroke-linecap:square;stroke-width:2;"/>
    </g>
    <g id="line2d_106"/>
    <g id="text_44">
     <!-- THOI -->
     <g transform="translate(1113.063533 63.12425)scale(0.12 -0.12)">
      <use xlink:href="#DejaVuSans-54"/>
      <use x="61.083984" xlink:href="#DejaVuSans-48"/>
      <use x="136.279297" xlink:href="#DejaVuSans-4f"/>
      <use x="214.990234" xlink:href="#DejaVuSans-49"/>
     </g>
    </g>
    <g id="line2d_107">
     <path d="M 1079.463533 76.538 
L 1103.463533 76.538 
" style="fill:none;stroke:#6acc64;stroke-linecap:square;stroke-width:2;"/>
    </g>
    <g id="line2d_108"/>
    <g id="text_45">
     <!-- GCMI -->
     <g transform="translate(1113.063533 80.738)scale(0.12 -0.12)">
      <use xlink:href="#DejaVuSans-47"/>
      <use x="77.490234" xlink:href="#DejaVuSans-43"/>
      <use x="147.314453" xlink:href="#DejaVuSans-4d"/>
      <use x="233.59375" xlink:href="#DejaVuSans-49"/>
     </g>
    </g>
   </g>
   <g id="legend_4">
    <g id="patch_15">
     <path d="M 1077.063533 159.816025 
L 1154.171033 159.816025 
Q 1156.571033 159.816025 1156.571033 157.416025 
L 1156.571033 107.7104 
Q 1156.571033 105.3104 1154.171033 105.3104 
L 1077.063533 105.3104 
Q 1074.663533 105.3104 1074.663533 107.7104 
L 1074.663533 157.416025 
Q 1074.663533 159.816025 1077.063533 159.816025 
z
" style="fill:#ffffff;opacity:0.8;stroke:#cccccc;stroke-linejoin:miter;"/>
    </g>
    <g id="text_46">
     <!-- KSG -->
     <g transform="translate(1105.28994 117.708837)scale(0.1 -0.1)">
      <use xlink:href="#DejaVuSans-4b"/>
      <use x="65.576172" xlink:href="#DejaVuSans-53"/>
      <use x="129.052734" xlink:href="#DejaVuSans-47"/>
     </g>
    </g>
    <g id="line2d_109">
     <path d="M 1079.463533 130.70665 
L 1103.463533 130.70665 
" style="fill:none;stroke:#ee854a;stroke-linecap:square;stroke-width:2;"/>
    </g>
    <g id="line2d_110"/>
    <g id="text_47">
     <!-- NPEET -->
     <g transform="translate(1113.063533 134.90665)scale(0.12 -0.12)">
      <use xlink:href="#DejaVuSans-4e"/>
      <use x="74.804688" xlink:href="#DejaVuSans-50"/>
      <use x="135.107422" xlink:href="#DejaVuSans-45"/>
      <use x="198.291016" xlink:href="#DejaVuSans-45"/>
      <use x="261.474609" xlink:href="#DejaVuSans-54"/>
     </g>
    </g>
    <g id="line2d_111">
     <path d="M 1079.463533 148.3204 
L 1103.463533 148.3204 
" style="fill:none;stroke:#d65f5f;stroke-linecap:square;stroke-width:2;"/>
    </g>
    <g id="line2d_112"/>
    <g id="text_48">
     <!-- JDIT -->
     <g transform="translate(1113.063533 152.5204)scale(0.12 -0.12)">
      <use xlink:href="#DejaVuSans-4a"/>
      <use x="29.492188" xlink:href="#DejaVuSans-44"/>
      <use x="106.494141" xlink:href="#DejaVuSans-49"/>
      <use x="135.986328" xlink:href="#DejaVuSans-54"/>
     </g>
    </g>
   </g>
  </g>
  <g id="axes_3">
   <g id="patch_16">
    <path d="M 1174.356667 386.44 
L 1621.332353 386.44 
L 1621.332353 27.528 
L 1174.356667 27.528 
z
" style="fill:#ffffff;"/>
   </g>
   <g id="PolyCollection_9"/>
   <g id="PolyCollection_10"/>
   <g id="PolyCollection_11"/>
   <g id="PolyCollection_12"/>
   <g id="matplotlib.axis_5">
    <g id="xtick_23">
     <g id="line2d_113">
      <path clip-path="url(#p2ee13a69bc)" d="M 1174.356667 386.44 
L 1174.356667 27.528 
" style="fill:none;stroke:#b0b0b0;stroke-linecap:square;stroke-width:0.8;"/>
     </g>
     <g id="line2d_114">
      <g>
       <use style="stroke:#000000;stroke-width:0.8;" x="1174.356667" xlink:href="#m7b4853de34" y="386.44"/>
      </g>
     </g>
     <g id="text_49">
      <!-- 0.0 -->
      <g transform="translate(1166.405104 401.038437)scale(0.1 -0.1)">
       <use xlink:href="#DejaVuSans-30"/>
       <use x="63.623047" xlink:href="#DejaVuSans-2e"/>
       <use x="95.410156" xlink:href="#DejaVuSans-30"/>
      </g>
     </g>
    </g>
    <g id="xtick_24">
     <g id="line2d_115">
      <path clip-path="url(#p2ee13a69bc)" d="M 1219.054235 386.44 
L 1219.054235 27.528 
" style="fill:none;stroke:#b0b0b0;stroke-linecap:square;stroke-width:0.8;"/>
     </g>
     <g id="line2d_116">
      <g>
       <use style="stroke:#000000;stroke-width:0.8;" x="1219.054235" xlink:href="#m7b4853de34" y="386.44"/>
      </g>
     </g>
     <g id="text_50">
      <!-- 0.1 -->
      <g transform="translate(1211.102673 401.038437)scale(0.1 -0.1)">
       <use xlink:href="#DejaVuSans-30"/>
       <use x="63.623047" xlink:href="#DejaVuSans-2e"/>
       <use x="95.410156" xlink:href="#DejaVuSans-31"/>
      </g>
     </g>
    </g>
    <g id="xtick_25">
     <g id="line2d_117">
      <path clip-path="url(#p2ee13a69bc)" d="M 1263.751804 386.44 
L 1263.751804 27.528 
" style="fill:none;stroke:#b0b0b0;stroke-linecap:square;stroke-width:0.8;"/>
     </g>
     <g id="line2d_118">
      <g>
       <use style="stroke:#000000;stroke-width:0.8;" x="1263.751804" xlink:href="#m7b4853de34" y="386.44"/>
      </g>
     </g>
     <g id="text_51">
      <!-- 0.2 -->
      <g transform="translate(1255.800241 401.038437)scale(0.1 -0.1)">
       <use xlink:href="#DejaVuSans-30"/>
       <use x="63.623047" xlink:href="#DejaVuSans-2e"/>
       <use x="95.410156" xlink:href="#DejaVuSans-32"/>
      </g>
     </g>
    </g>
    <g id="xtick_26">
     <g id="line2d_119">
      <path clip-path="url(#p2ee13a69bc)" d="M 1308.449373 386.44 
L 1308.449373 27.528 
" style="fill:none;stroke:#b0b0b0;stroke-linecap:square;stroke-width:0.8;"/>
     </g>
     <g id="line2d_120">
      <g>
       <use style="stroke:#000000;stroke-width:0.8;" x="1308.449373" xlink:href="#m7b4853de34" y="386.44"/>
      </g>
     </g>
     <g id="text_52">
      <!-- 0.3 -->
      <g transform="translate(1300.49781 401.038437)scale(0.1 -0.1)">
       <use xlink:href="#DejaVuSans-30"/>
       <use x="63.623047" xlink:href="#DejaVuSans-2e"/>
       <use x="95.410156" xlink:href="#DejaVuSans-33"/>
      </g>
     </g>
    </g>
    <g id="xtick_27">
     <g id="line2d_121">
      <path clip-path="url(#p2ee13a69bc)" d="M 1353.146941 386.44 
L 1353.146941 27.528 
" style="fill:none;stroke:#b0b0b0;stroke-linecap:square;stroke-width:0.8;"/>
     </g>
     <g id="line2d_122">
      <g>
       <use style="stroke:#000000;stroke-width:0.8;" x="1353.146941" xlink:href="#m7b4853de34" y="386.44"/>
      </g>
     </g>
     <g id="text_53">
      <!-- 0.4 -->
      <g transform="translate(1345.195379 401.038437)scale(0.1 -0.1)">
       <use xlink:href="#DejaVuSans-30"/>
       <use x="63.623047" xlink:href="#DejaVuSans-2e"/>
       <use x="95.410156" xlink:href="#DejaVuSans-34"/>
      </g>
     </g>
    </g>
    <g id="xtick_28">
     <g id="line2d_123">
      <path clip-path="url(#p2ee13a69bc)" d="M 1397.84451 386.44 
L 1397.84451 27.528 
" style="fill:none;stroke:#b0b0b0;stroke-linecap:square;stroke-width:0.8;"/>
     </g>
     <g id="line2d_124">
      <g>
       <use style="stroke:#000000;stroke-width:0.8;" x="1397.84451" xlink:href="#m7b4853de34" y="386.44"/>
      </g>
     </g>
     <g id="text_54">
      <!-- 0.5 -->
      <g transform="translate(1389.892947 401.038437)scale(0.1 -0.1)">
       <use xlink:href="#DejaVuSans-30"/>
       <use x="63.623047" xlink:href="#DejaVuSans-2e"/>
       <use x="95.410156" xlink:href="#DejaVuSans-35"/>
      </g>
     </g>
    </g>
    <g id="xtick_29">
     <g id="line2d_125">
      <path clip-path="url(#p2ee13a69bc)" d="M 1442.542078 386.44 
L 1442.542078 27.528 
" style="fill:none;stroke:#b0b0b0;stroke-linecap:square;stroke-width:0.8;"/>
     </g>
     <g id="line2d_126">
      <g>
       <use style="stroke:#000000;stroke-width:0.8;" x="1442.542078" xlink:href="#m7b4853de34" y="386.44"/>
      </g>
     </g>
     <g id="text_55">
      <!-- 0.6 -->
      <g transform="translate(1434.590516 401.038437)scale(0.1 -0.1)">
       <use xlink:href="#DejaVuSans-30"/>
       <use x="63.623047" xlink:href="#DejaVuSans-2e"/>
       <use x="95.410156" xlink:href="#DejaVuSans-36"/>
      </g>
     </g>
    </g>
    <g id="xtick_30">
     <g id="line2d_127">
      <path clip-path="url(#p2ee13a69bc)" d="M 1487.239647 386.44 
L 1487.239647 27.528 
" style="fill:none;stroke:#b0b0b0;stroke-linecap:square;stroke-width:0.8;"/>
     </g>
     <g id="line2d_128">
      <g>
       <use style="stroke:#000000;stroke-width:0.8;" x="1487.239647" xlink:href="#m7b4853de34" y="386.44"/>
      </g>
     </g>
     <g id="text_56">
      <!-- 0.7 -->
      <g transform="translate(1479.288085 401.038437)scale(0.1 -0.1)">
       <use xlink:href="#DejaVuSans-30"/>
       <use x="63.623047" xlink:href="#DejaVuSans-2e"/>
       <use x="95.410156" xlink:href="#DejaVuSans-37"/>
      </g>
     </g>
    </g>
    <g id="xtick_31">
     <g id="line2d_129">
      <path clip-path="url(#p2ee13a69bc)" d="M 1531.937216 386.44 
L 1531.937216 27.528 
" style="fill:none;stroke:#b0b0b0;stroke-linecap:square;stroke-width:0.8;"/>
     </g>
     <g id="line2d_130">
      <g>
       <use style="stroke:#000000;stroke-width:0.8;" x="1531.937216" xlink:href="#m7b4853de34" y="386.44"/>
      </g>
     </g>
     <g id="text_57">
      <!-- 0.8 -->
      <g transform="translate(1523.985653 401.038437)scale(0.1 -0.1)">
       <use xlink:href="#DejaVuSans-30"/>
       <use x="63.623047" xlink:href="#DejaVuSans-2e"/>
       <use x="95.410156" xlink:href="#DejaVuSans-38"/>
      </g>
     </g>
    </g>
    <g id="xtick_32">
     <g id="line2d_131">
      <path clip-path="url(#p2ee13a69bc)" d="M 1576.634784 386.44 
L 1576.634784 27.528 
" style="fill:none;stroke:#b0b0b0;stroke-linecap:square;stroke-width:0.8;"/>
     </g>
     <g id="line2d_132">
      <g>
       <use style="stroke:#000000;stroke-width:0.8;" x="1576.634784" xlink:href="#m7b4853de34" y="386.44"/>
      </g>
     </g>
     <g id="text_58">
      <!-- 0.9 -->
      <g transform="translate(1568.683222 401.038437)scale(0.1 -0.1)">
       <use xlink:href="#DejaVuSans-30"/>
       <use x="63.623047" xlink:href="#DejaVuSans-2e"/>
       <use x="95.410156" xlink:href="#DejaVuSans-39"/>
      </g>
     </g>
    </g>
    <g id="xtick_33">
     <g id="line2d_133">
      <path clip-path="url(#p2ee13a69bc)" d="M 1621.332353 386.44 
L 1621.332353 27.528 
" style="fill:none;stroke:#b0b0b0;stroke-linecap:square;stroke-width:0.8;"/>
     </g>
     <g id="line2d_134">
      <g>
       <use style="stroke:#000000;stroke-width:0.8;" x="1621.332353" xlink:href="#m7b4853de34" y="386.44"/>
      </g>
     </g>
     <g id="text_59">
      <!-- 1.0 -->
      <g transform="translate(1613.38079 401.038437)scale(0.1 -0.1)">
       <use xlink:href="#DejaVuSans-31"/>
       <use x="63.623047" xlink:href="#DejaVuSans-2e"/>
       <use x="95.410156" xlink:href="#DejaVuSans-30"/>
      </g>
     </g>
    </g>
    <g id="text_60">
     <!-- $\alpha$ -->
     <g transform="translate(1393.22451 417.755938)scale(0.14 -0.14)">
      <use transform="translate(0 0.84375)" xlink:href="#DejaVuSans-Oblique-3b1"/>
     </g>
    </g>
   </g>
   <g id="matplotlib.axis_6">
    <g id="ytick_19">
     <g id="line2d_135">
      <path clip-path="url(#p2ee13a69bc)" d="M 1174.356667 370.125818 
L 1621.332353 370.125818 
" style="fill:none;stroke:#b0b0b0;stroke-linecap:square;stroke-width:0.8;"/>
     </g>
     <g id="line2d_136">
      <g>
       <use style="stroke:#000000;stroke-width:0.8;" x="1174.356667" xlink:href="#mffae93fd29" y="370.125818"/>
      </g>
     </g>
    </g>
    <g id="ytick_20">
     <g id="line2d_137">
      <path clip-path="url(#p2ee13a69bc)" d="M 1174.356667 327.596699 
L 1621.332353 327.596699 
" style="fill:none;stroke:#b0b0b0;stroke-linecap:square;stroke-width:0.8;"/>
     </g>
     <g id="line2d_138">
      <g>
       <use style="stroke:#000000;stroke-width:0.8;" x="1174.356667" xlink:href="#mffae93fd29" y="327.596699"/>
      </g>
     </g>
    </g>
    <g id="ytick_21">
     <g id="line2d_139">
      <path clip-path="url(#p2ee13a69bc)" d="M 1174.356667 285.067581 
L 1621.332353 285.067581 
" style="fill:none;stroke:#b0b0b0;stroke-linecap:square;stroke-width:0.8;"/>
     </g>
     <g id="line2d_140">
      <g>
       <use style="stroke:#000000;stroke-width:0.8;" x="1174.356667" xlink:href="#mffae93fd29" y="285.067581"/>
      </g>
     </g>
    </g>
    <g id="ytick_22">
     <g id="line2d_141">
      <path clip-path="url(#p2ee13a69bc)" d="M 1174.356667 242.538462 
L 1621.332353 242.538462 
" style="fill:none;stroke:#b0b0b0;stroke-linecap:square;stroke-width:0.8;"/>
     </g>
     <g id="line2d_142">
      <g>
       <use style="stroke:#000000;stroke-width:0.8;" x="1174.356667" xlink:href="#mffae93fd29" y="242.538462"/>
      </g>
     </g>
    </g>
    <g id="ytick_23">
     <g id="line2d_143">
      <path clip-path="url(#p2ee13a69bc)" d="M 1174.356667 200.009343 
L 1621.332353 200.009343 
" style="fill:none;stroke:#b0b0b0;stroke-linecap:square;stroke-width:0.8;"/>
     </g>
     <g id="line2d_144">
      <g>
       <use style="stroke:#000000;stroke-width:0.8;" x="1174.356667" xlink:href="#mffae93fd29" y="200.009343"/>
      </g>
     </g>
    </g>
    <g id="ytick_24">
     <g id="line2d_145">
      <path clip-path="url(#p2ee13a69bc)" d="M 1174.356667 157.480224 
L 1621.332353 157.480224 
" style="fill:none;stroke:#b0b0b0;stroke-linecap:square;stroke-width:0.8;"/>
     </g>
     <g id="line2d_146">
      <g>
       <use style="stroke:#000000;stroke-width:0.8;" x="1174.356667" xlink:href="#mffae93fd29" y="157.480224"/>
      </g>
     </g>
    </g>
    <g id="ytick_25">
     <g id="line2d_147">
      <path clip-path="url(#p2ee13a69bc)" d="M 1174.356667 114.951105 
L 1621.332353 114.951105 
" style="fill:none;stroke:#b0b0b0;stroke-linecap:square;stroke-width:0.8;"/>
     </g>
     <g id="line2d_148">
      <g>
       <use style="stroke:#000000;stroke-width:0.8;" x="1174.356667" xlink:href="#mffae93fd29" y="114.951105"/>
      </g>
     </g>
    </g>
    <g id="ytick_26">
     <g id="line2d_149">
      <path clip-path="url(#p2ee13a69bc)" d="M 1174.356667 72.421987 
L 1621.332353 72.421987 
" style="fill:none;stroke:#b0b0b0;stroke-linecap:square;stroke-width:0.8;"/>
     </g>
     <g id="line2d_150">
      <g>
       <use style="stroke:#000000;stroke-width:0.8;" x="1174.356667" xlink:href="#mffae93fd29" y="72.421987"/>
      </g>
     </g>
    </g>
    <g id="ytick_27">
     <g id="line2d_151">
      <path clip-path="url(#p2ee13a69bc)" d="M 1174.356667 29.892868 
L 1621.332353 29.892868 
" style="fill:none;stroke:#b0b0b0;stroke-linecap:square;stroke-width:0.8;"/>
     </g>
     <g id="line2d_152">
      <g>
       <use style="stroke:#000000;stroke-width:0.8;" x="1174.356667" xlink:href="#mffae93fd29" y="29.892868"/>
      </g>
     </g>
    </g>
   </g>
   <g id="LineCollection_3">
    <path clip-path="url(#p2ee13a69bc)" d="M 1174.356667 370.125818 
L 1621.332353 370.125818 
" style="fill:none;stroke:#000000;stroke-dasharray:5.55,2.4;stroke-dashoffset:0;stroke-width:1.5;"/>
   </g>
   <g id="line2d_153">
    <path clip-path="url(#p2ee13a69bc)" d="M 1174.356667 143.964155 
L 1219.054235 190.604457 
L 1263.751804 239.928679 
L 1308.449373 275.620849 
L 1353.146941 302.465137 
L 1397.84451 322.712814 
L 1442.542078 337.263415 
L 1487.239647 346.846746 
L 1531.937216 351.466353 
L 1576.634784 349.398751 
L 1621.332353 342.029459 
" style="fill:none;stroke:#4878d0;stroke-linecap:square;stroke-width:1.5;"/>
   </g>
   <g id="line2d_154">
    <path clip-path="url(#p2ee13a69bc)" d="M 1174.356667 43.843521 
L 1219.054235 111.131227 
L 1263.751804 182.291031 
L 1308.449373 233.783942 
L 1353.146941 272.512087 
L 1397.84451 301.723323 
L 1442.542078 322.715349 
L 1487.239647 336.541178 
L 1531.937216 343.20585 
L 1576.634784 340.222933 
L 1621.332353 329.591298 
" style="fill:none;stroke:#6acc64;stroke-linecap:square;stroke-width:1.5;"/>
   </g>
   <g id="line2d_155">
    <path clip-path="url(#p2ee13a69bc)" d="M 1174.356667 200.145076 
L 1219.054235 234.723704 
L 1263.751804 268.52249 
L 1308.449373 291.106597 
L 1353.146941 306.061647 
L 1397.84451 315.053895 
L 1442.542078 318.319308 
L 1487.239647 315.672419 
L 1531.937216 305.639005 
L 1576.634784 285.664611 
L 1621.332353 261.758948 
" style="fill:none;stroke:#d65f5f;stroke-linecap:square;stroke-width:1.5;"/>
   </g>
   <g id="line2d_156">
    <path clip-path="url(#p2ee13a69bc)" d="M 1174.356667 130.734475 
L 1219.054235 170.08651 
L 1263.751804 205.000422 
L 1308.449373 229.84713 
L 1353.146941 248.663754 
L 1397.84451 263.707432 
L 1442.542078 274.587407 
L 1487.239647 280.791778 
L 1531.937216 281.614671 
L 1576.634784 273.997793 
L 1621.332353 255.210003 
" style="fill:none;stroke:#ee854a;stroke-linecap:square;stroke-width:1.5;"/>
   </g>
   <g id="line2d_157"/>
   <g id="line2d_158"/>
   <g id="line2d_159"/>
   <g id="line2d_160"/>
   <g id="patch_17">
    <path d="M 1174.356667 386.44 
L 1174.356667 27.528 
" style="fill:none;stroke:#000000;stroke-linecap:square;stroke-linejoin:miter;stroke-width:0.8;"/>
   </g>
   <g id="patch_18">
    <path d="M 1621.332353 386.44 
L 1621.332353 27.528 
" style="fill:none;stroke:#000000;stroke-linecap:square;stroke-linejoin:miter;stroke-width:0.8;"/>
   </g>
   <g id="patch_19">
    <path d="M 1174.356667 386.44 
L 1621.332353 386.44 
" style="fill:none;stroke:#000000;stroke-linecap:square;stroke-linejoin:miter;stroke-width:0.8;"/>
   </g>
   <g id="patch_20">
    <path d="M 1174.356667 27.528 
L 1621.332353 27.528 
" style="fill:none;stroke:#000000;stroke-linecap:square;stroke-linejoin:miter;stroke-width:0.8;"/>
   </g>
   <g id="text_61">
    <!-- $(Z_{red},X_1,X_2,X_3,X_4,X_5,X_6)$ -->
    <g transform="translate(1321.76451 21.528)scale(0.12 -0.12)">
     <use transform="translate(0 0.125)" xlink:href="#DejaVuSans-28"/>
     <use transform="translate(39.013672 0.125)" xlink:href="#DejaVuSans-Oblique-5a"/>
     <use transform="translate(107.519531 -16.28125)scale(0.7)" xlink:href="#DejaVuSans-Oblique-72"/>
     <use transform="translate(136.298828 -16.28125)scale(0.7)" xlink:href="#DejaVuSans-Oblique-65"/>
     <use transform="translate(179.365234 -16.28125)scale(0.7)" xlink:href="#DejaVuSans-Oblique-64"/>
     <use transform="translate(226.533203 0.125)" xlink:href="#DejaVuSans-2c"/>
     <use transform="translate(277.802734 0.125)" xlink:href="#DejaVuSans-Oblique-58"/>
     <use transform="translate(346.308594 -16.28125)scale(0.7)" xlink:href="#DejaVuSans-31"/>
     <use transform="translate(393.579102 0.125)" xlink:href="#DejaVuSans-2c"/>
     <use transform="translate(444.848633 0.125)" xlink:href="#DejaVuSans-Oblique-58"/>
     <use transform="translate(513.354492 -16.28125)scale(0.7)" xlink:href="#DejaVuSans-32"/>
     <use transform="translate(560.625 0.125)" xlink:href="#DejaVuSans-2c"/>
     <use transform="translate(611.894531 0.125)" xlink:href="#DejaVuSans-Oblique-58"/>
     <use transform="translate(680.400391 -16.28125)scale(0.7)" xlink:href="#DejaVuSans-33"/>
     <use transform="translate(727.670898 0.125)" xlink:href="#DejaVuSans-2c"/>
     <use transform="translate(778.94043 0.125)" xlink:href="#DejaVuSans-Oblique-58"/>
     <use transform="translate(847.446289 -16.28125)scale(0.7)" xlink:href="#DejaVuSans-34"/>
     <use transform="translate(894.716797 0.125)" xlink:href="#DejaVuSans-2c"/>
     <use transform="translate(945.986328 0.125)" xlink:href="#DejaVuSans-Oblique-58"/>
     <use transform="translate(1014.492188 -16.28125)scale(0.7)" xlink:href="#DejaVuSans-35"/>
     <use transform="translate(1061.762695 0.125)" xlink:href="#DejaVuSans-2c"/>
     <use transform="translate(1113.032227 0.125)" xlink:href="#DejaVuSans-Oblique-58"/>
     <use transform="translate(1181.538086 -16.28125)scale(0.7)" xlink:href="#DejaVuSans-36"/>
     <use transform="translate(1228.808594 0.125)" xlink:href="#DejaVuSans-29"/>
    </g>
   </g>
   <g id="legend_5">
    <g id="patch_21">
     <path d="M 1638.671867 88.033625 
L 1708.643117 88.033625 
Q 1711.043117 88.033625 1711.043117 85.633625 
L 1711.043117 35.928 
Q 1711.043117 33.528 1708.643117 33.528 
L 1638.671867 33.528 
Q 1636.271867 33.528 1636.271867 35.928 
L 1636.271867 85.633625 
Q 1636.271867 88.033625 1638.671867 88.033625 
z
" style="fill:#ffffff;opacity:0.8;stroke:#cccccc;stroke-linejoin:miter;"/>
    </g>
    <g id="text_62">
     <!-- GC -->
     <g transform="translate(1666.291867 45.926437)scale(0.1 -0.1)">
      <use xlink:href="#DejaVuSans-47"/>
      <use x="77.490234" xlink:href="#DejaVuSans-43"/>
     </g>
    </g>
    <g id="line2d_161">
     <path d="M 1641.071867 58.92425 
L 1665.071867 58.92425 
" style="fill:none;stroke:#4878d0;stroke-linecap:square;stroke-width:2;"/>
    </g>
    <g id="line2d_162"/>
    <g id="text_63">
     <!-- THOI -->
     <g transform="translate(1674.671867 63.12425)scale(0.12 -0.12)">
      <use xlink:href="#DejaVuSans-54"/>
      <use x="61.083984" xlink:href="#DejaVuSans-48"/>
      <use x="136.279297" xlink:href="#DejaVuSans-4f"/>
      <use x="214.990234" xlink:href="#DejaVuSans-49"/>
     </g>
    </g>
    <g id="line2d_163">
     <path d="M 1641.071867 76.538 
L 1665.071867 76.538 
" style="fill:none;stroke:#6acc64;stroke-linecap:square;stroke-width:2;"/>
    </g>
    <g id="line2d_164"/>
    <g id="text_64">
     <!-- GCMI -->
     <g transform="translate(1674.671867 80.738)scale(0.12 -0.12)">
      <use xlink:href="#DejaVuSans-47"/>
      <use x="77.490234" xlink:href="#DejaVuSans-43"/>
      <use x="147.314453" xlink:href="#DejaVuSans-4d"/>
      <use x="233.59375" xlink:href="#DejaVuSans-49"/>
     </g>
    </g>
   </g>
   <g id="legend_6">
    <g id="patch_22">
     <path d="M 1638.671867 159.816025 
L 1715.779367 159.816025 
Q 1718.179367 159.816025 1718.179367 157.416025 
L 1718.179367 107.7104 
Q 1718.179367 105.3104 1715.779367 105.3104 
L 1638.671867 105.3104 
Q 1636.271867 105.3104 1636.271867 107.7104 
L 1636.271867 157.416025 
Q 1636.271867 159.816025 1638.671867 159.816025 
z
" style="fill:#ffffff;opacity:0.8;stroke:#cccccc;stroke-linejoin:miter;"/>
    </g>
    <g id="text_65">
     <!-- KSG -->
     <g transform="translate(1666.898273 117.708837)scale(0.1 -0.1)">
      <use xlink:href="#DejaVuSans-4b"/>
      <use x="65.576172" xlink:href="#DejaVuSans-53"/>
      <use x="129.052734" xlink:href="#DejaVuSans-47"/>
     </g>
    </g>
    <g id="line2d_165">
     <path d="M 1641.071867 130.70665 
L 1665.071867 130.70665 
" style="fill:none;stroke:#ee854a;stroke-linecap:square;stroke-width:2;"/>
    </g>
    <g id="line2d_166"/>
    <g id="text_66">
     <!-- NPEET -->
     <g transform="translate(1674.671867 134.90665)scale(0.12 -0.12)">
      <use xlink:href="#DejaVuSans-4e"/>
      <use x="74.804688" xlink:href="#DejaVuSans-50"/>
      <use x="135.107422" xlink:href="#DejaVuSans-45"/>
      <use x="198.291016" xlink:href="#DejaVuSans-45"/>
      <use x="261.474609" xlink:href="#DejaVuSans-54"/>
     </g>
    </g>
    <g id="line2d_167">
     <path d="M 1641.071867 148.3204 
L 1665.071867 148.3204 
" style="fill:none;stroke:#d65f5f;stroke-linecap:square;stroke-width:2;"/>
    </g>
    <g id="line2d_168"/>
    <g id="text_67">
     <!-- JDIT -->
     <g transform="translate(1674.671867 152.5204)scale(0.12 -0.12)">
      <use xlink:href="#DejaVuSans-4a"/>
      <use x="29.492188" xlink:href="#DejaVuSans-44"/>
      <use x="106.494141" xlink:href="#DejaVuSans-49"/>
      <use x="135.986328" xlink:href="#DejaVuSans-54"/>
     </g>
    </g>
   </g>
  </g>
 </g>
 <defs>
  <clipPath id="pc2247f5ca5">
   <rect height="358.912" width="446.975686" x="51.14" y="27.528"/>
  </clipPath>
  <clipPath id="pb9fee72379">
   <rect height="358.912" width="446.975686" x="612.748333" y="27.528"/>
  </clipPath>
  <clipPath id="p2ee13a69bc">
   <rect height="358.912" width="446.975686" x="1174.356667" y="27.528"/>
  </clipPath>
 </defs>
</svg>
