<?xml version="1.0" encoding="utf-8" standalone="no"?>
<!DOCTYPE svg PUBLIC "-//W3C//DTD SVG 1.1//EN"
  "http://www.w3.org/Graphics/SVG/1.1/DTD/svg11.dtd">
<svg height="345.6pt" version="1.1" viewBox="0 0 460.8 345.6" width="460.8pt" xmlns="http://www.w3.org/2000/svg" xmlns:xlink="http://www.w3.org/1999/xlink">
 <metadata>
  <rdf:RDF xmlns:cc="http://creativecommons.org/ns#" xmlns:dc="http://purl.org/dc/elements/1.1/" xmlns:rdf="http://www.w3.org/1999/02/22-rdf-syntax-ns#">
   <cc:Work>
    <dc:type rdf:resource="http://purl.org/dc/dcmitype/StillImage"/>
    <dc:date>2024-05-17T18:50:10.986913</dc:date>
    <dc:format>image/svg+xml</dc:format>
    <dc:creator>
     <cc:Agent>
      <dc:title>Matplotlib v3.4.3, https://matplotlib.org/</dc:title>
     </cc:Agent>
    </dc:creator>
   </cc:Work>
  </rdf:RDF>
 </metadata>
 <defs>
  <style type="text/css">*{stroke-linecap:butt;stroke-linejoin:round;}</style>
 </defs>
 <g id="figure_1">
  <g id="patch_1">
   <path d="M 0 345.6 
L 460.8 345.6 
L 460.8 0 
L 0 0 
z
" style="fill:#ffffff;"/>
  </g>
  <g id="axes_1">
   <g id="patch_2">
    <path d="M 57.6 307.584 
L 414.72 307.584 
L 414.72 41.472 
L 57.6 41.472 
z
" style="fill:#ffffff;"/>
   </g>
   <g id="PolyCollection_1">
    <defs>
     <path d="M 73.832727 -171.211128 
L 73.832727 -171.158524 
L 78.537866 -171.158524 
L 83.243004 -171.158524 
L 87.948142 -171.158524 
L 92.653281 -171.158524 
L 97.358419 -171.158524 
L 102.063557 -171.158524 
L 106.768696 -171.158524 
L 111.473834 -171.158524 
L 116.178972 -171.158524 
L 120.884111 -171.158524 
L 125.589249 -171.158524 
L 130.294387 -171.158524 
L 134.999526 -171.158524 
L 139.704664 -171.158524 
L 144.409802 -171.158524 
L 149.114941 -171.158524 
L 153.820079 -171.158524 
L 158.525217 -171.158524 
L 163.230356 -171.158524 
L 167.935494 -171.158524 
L 172.640632 -171.158524 
L 177.345771 -171.158524 
L 182.050909 -171.158524 
L 186.756047 -171.158524 
L 191.461186 -171.158524 
L 196.166324 -171.158524 
L 200.871462 -171.158524 
L 205.576601 -171.158524 
L 210.281739 -171.158524 
L 214.986877 -171.158524 
L 219.692016 -171.158524 
L 224.397154 -171.158524 
L 229.102292 -171.158524 
L 233.807431 -171.158524 
L 238.512569 -171.158524 
L 243.217708 -171.158524 
L 247.922846 -171.158524 
L 252.627984 -171.158524 
L 257.333123 -171.158524 
L 262.038261 -171.158524 
L 266.743399 -171.158524 
L 271.448538 -171.158524 
L 276.153676 -171.158524 
L 280.858814 -171.158524 
L 285.563953 -171.158524 
L 290.269091 -171.158524 
L 294.974229 -171.158524 
L 299.679368 -171.158524 
L 304.384506 -171.158524 
L 309.089644 -171.158524 
L 313.794783 -171.158524 
L 318.499921 -171.158524 
L 323.205059 -171.158524 
L 327.910198 -171.158524 
L 332.615336 -171.158524 
L 337.320474 -171.158524 
L 342.025613 -171.158524 
L 346.730751 -171.158524 
L 351.435889 -171.158524 
L 356.141028 -171.158524 
L 360.846166 -171.158524 
L 365.551304 -171.158524 
L 370.256443 -171.158524 
L 374.961581 -171.158524 
L 379.666719 -171.158524 
L 384.371858 -171.158524 
L 389.076996 -171.158524 
L 393.782134 -171.158524 
L 398.487273 -171.158524 
L 398.487273 -171.211128 
L 398.487273 -171.211128 
L 393.782134 -171.158524 
L 389.076996 -171.211128 
L 384.371858 -171.263733 
L 379.666719 -171.211128 
L 374.961581 -171.211128 
L 370.256443 -171.211128 
L 365.551304 -171.474152 
L 360.846166 -171.421547 
L 356.141028 -171.631967 
L 351.435889 -171.737176 
L 346.730751 -172.052805 
L 342.025613 -172.315829 
L 337.320474 -172.421038 
L 332.615336 -173.21011 
L 327.910198 -173.525738 
L 323.205059 -174.840858 
L 318.499921 -175.366905 
L 313.794783 -176.997653 
L 309.089644 -178.417982 
L 304.384506 -180.416963 
L 299.679368 -179.785706 
L 294.974229 -182.731573 
L 290.269091 -183.625854 
L 285.563953 -185.519626 
L 280.858814 -187.88684 
L 276.153676 -189.570193 
L 271.448538 -192.779084 
L 266.743399 -191.41136 
L 262.038261 -195.619741 
L 257.333123 -195.041089 
L 252.627984 -196.882256 
L 247.922846 -197.197884 
L 243.217708 -197.04007 
L 238.512569 -197.408304 
L 233.807431 -196.987465 
L 229.102292 -195.672346 
L 224.397154 -193.72597 
L 219.692016 -190.411869 
L 214.986877 -189.20196 
L 210.281739 -187.676421 
L 205.576601 -185.835254 
L 200.871462 -182.521154 
L 196.166324 -183.257621 
L 191.461186 -180.259149 
L 186.756047 -179.101844 
L 182.050909 -178.470587 
L 177.345771 -175.840348 
L 172.640632 -174.840858 
L 167.935494 -174.051786 
L 163.230356 -173.473134 
L 158.525217 -172.999691 
L 153.820079 -172.526248 
L 149.114941 -172.105409 
L 144.409802 -172.0002 
L 139.704664 -172.052805 
L 134.999526 -171.474152 
L 130.294387 -171.316338 
L 125.589249 -171.158524 
L 120.884111 -171.316338 
L 116.178972 -171.421547 
L 111.473834 -171.211128 
L 106.768696 -171.211128 
L 102.063557 -171.211128 
L 97.358419 -171.158524 
L 92.653281 -171.158524 
L 87.948142 -171.158524 
L 83.243004 -171.158524 
L 78.537866 -171.158524 
L 73.832727 -171.211128 
z
" id="m8dd7e26c08" style="stroke:#008000;"/>
    </defs>
    <g clip-path="url(#p45cb8ab0a9)">
     <use style="fill:#008000;fill-opacity:0.5;stroke:#008000;" x="0" xlink:href="#m8dd7e26c08" y="345.6"/>
    </g>
   </g>
   <g id="PolyCollection_2"/>
   <g id="PolyCollection_3"/>
   <g id="matplotlib.axis_1">
    <g id="xtick_1">
     <g id="line2d_1">
      <defs>
       <path d="M 0 0 
L 0 3.5 
" id="m684ec29375" style="stroke:#000000;stroke-width:0.8;"/>
      </defs>
      <g>
       <use style="stroke:#000000;stroke-width:0.8;" x="92.900325" xlink:href="#m684ec29375" y="307.584"/>
      </g>
     </g>
     <g id="text_1">
      <!-- −4 -->
      <g transform="translate(85.529232 322.182437)scale(0.1 -0.1)">
       <defs>
        <path d="M 678 2272 
L 4684 2272 
L 4684 1741 
L 678 1741 
L 678 2272 
z
" id="DejaVuSans-2212" transform="scale(0.015625)"/>
        <path d="M 2419 4116 
L 825 1625 
L 2419 1625 
L 2419 4116 
z
M 2253 4666 
L 3047 4666 
L 3047 1625 
L 3713 1625 
L 3713 1100 
L 3047 1100 
L 3047 0 
L 2419 0 
L 2419 1100 
L 313 1100 
L 313 1709 
L 2253 4666 
z
" id="DejaVuSans-34" transform="scale(0.015625)"/>
       </defs>
       <use xlink:href="#DejaVuSans-2212"/>
       <use x="83.789062" xlink:href="#DejaVuSans-34"/>
      </g>
     </g>
    </g>
    <g id="xtick_2">
     <g id="line2d_2">
      <g>
       <use style="stroke:#000000;stroke-width:0.8;" x="169.408742" xlink:href="#m684ec29375" y="307.584"/>
      </g>
     </g>
     <g id="text_2">
      <!-- −2 -->
      <g transform="translate(162.037648 322.182437)scale(0.1 -0.1)">
       <defs>
        <path d="M 1228 531 
L 3431 531 
L 3431 0 
L 469 0 
L 469 531 
Q 828 903 1448 1529 
Q 2069 2156 2228 2338 
Q 2531 2678 2651 2914 
Q 2772 3150 2772 3378 
Q 2772 3750 2511 3984 
Q 2250 4219 1831 4219 
Q 1534 4219 1204 4116 
Q 875 4013 500 3803 
L 500 4441 
Q 881 4594 1212 4672 
Q 1544 4750 1819 4750 
Q 2544 4750 2975 4387 
Q 3406 4025 3406 3419 
Q 3406 3131 3298 2873 
Q 3191 2616 2906 2266 
Q 2828 2175 2409 1742 
Q 1991 1309 1228 531 
z
" id="DejaVuSans-32" transform="scale(0.015625)"/>
       </defs>
       <use xlink:href="#DejaVuSans-2212"/>
       <use x="83.789062" xlink:href="#DejaVuSans-32"/>
      </g>
     </g>
    </g>
    <g id="xtick_3">
     <g id="line2d_3">
      <g>
       <use style="stroke:#000000;stroke-width:0.8;" x="245.917159" xlink:href="#m684ec29375" y="307.584"/>
      </g>
     </g>
     <g id="text_3">
      <!-- 0 -->
      <g transform="translate(242.735909 322.182437)scale(0.1 -0.1)">
       <defs>
        <path d="M 2034 4250 
Q 1547 4250 1301 3770 
Q 1056 3291 1056 2328 
Q 1056 1369 1301 889 
Q 1547 409 2034 409 
Q 2525 409 2770 889 
Q 3016 1369 3016 2328 
Q 3016 3291 2770 3770 
Q 2525 4250 2034 4250 
z
M 2034 4750 
Q 2819 4750 3233 4129 
Q 3647 3509 3647 2328 
Q 3647 1150 3233 529 
Q 2819 -91 2034 -91 
Q 1250 -91 836 529 
Q 422 1150 422 2328 
Q 422 3509 836 4129 
Q 1250 4750 2034 4750 
z
" id="DejaVuSans-30" transform="scale(0.015625)"/>
       </defs>
       <use xlink:href="#DejaVuSans-30"/>
      </g>
     </g>
    </g>
    <g id="xtick_4">
     <g id="line2d_4">
      <g>
       <use style="stroke:#000000;stroke-width:0.8;" x="322.425575" xlink:href="#m684ec29375" y="307.584"/>
      </g>
     </g>
     <g id="text_4">
      <!-- 2 -->
      <g transform="translate(319.244325 322.182437)scale(0.1 -0.1)">
       <use xlink:href="#DejaVuSans-32"/>
      </g>
     </g>
    </g>
    <g id="xtick_5">
     <g id="line2d_5">
      <g>
       <use style="stroke:#000000;stroke-width:0.8;" x="398.933992" xlink:href="#m684ec29375" y="307.584"/>
      </g>
     </g>
     <g id="text_5">
      <!-- 4 -->
      <g transform="translate(395.752742 322.182437)scale(0.1 -0.1)">
       <use xlink:href="#DejaVuSans-34"/>
      </g>
     </g>
    </g>
   </g>
   <g id="matplotlib.axis_2"/>
   <g id="line2d_6">
    <path clip-path="url(#p45cb8ab0a9)" d="M 112.027429 174.441476 
L 245.917159 174.441476 
L 246.299701 167.971268 
L 247.064785 163.234746 
L 247.829869 159.97365 
L 248.977495 156.140962 
L 250.507664 152.028015 
L 252.037832 148.560641 
L 253.950542 144.791255 
L 256.245795 140.821285 
L 258.541047 137.272956 
L 261.218842 133.520283 
L 264.279179 129.614555 
L 267.722057 125.592471 
L 271.547478 121.480534 
L 275.755441 117.298139 
L 280.345946 113.059686 
L 285.318993 108.776028 
L 290.674582 104.455467 
L 296.412714 100.104436 
L 302.915929 95.462512 
L 309.801687 90.827951 
L 317.069986 86.199592 
L 325.10337 81.351382 
L 333.519296 76.52945 
L 342.700306 71.526504 
L 352.6464 66.367682 
L 362.975036 61.259047 
L 374.068757 56.01721 
L 379.424346 53.568 
L 379.424346 53.568 
" style="fill:none;stroke:#1f77b4;stroke-linecap:square;stroke-width:1.5;"/>
   </g>
   <g id="line2d_7">
    <path clip-path="url(#p45cb8ab0a9)" d="M 112.027429 295.488 
L 123.886234 290.003102 
L 134.979954 284.625163 
L 145.308591 279.370631 
L 154.872143 274.258997 
L 163.670611 269.313361 
L 172.086537 264.32849 
L 179.737378 259.543787 
L 187.005678 254.734657 
L 193.508893 250.173329 
L 199.629567 245.613774 
L 205.367698 241.056354 
L 210.340745 236.837911 
L 214.93125 232.673356 
L 219.139213 228.575127 
L 222.964634 224.559499 
L 226.407512 220.64801 
L 229.467849 216.869473 
L 232.528186 212.719748 
L 235.20598 208.678603 
L 237.501233 204.789446 
L 239.413943 201.118831 
L 240.944112 197.770146 
L 242.47428 193.852103 
L 243.621906 190.290187 
L 244.38699 187.381894 
L 245.152074 183.591733 
L 245.534617 180.911685 
L 245.917159 174.441494 
L 379.424346 174.441476 
L 379.424346 174.441476 
" style="fill:none;stroke:#ff7f0e;stroke-linecap:square;stroke-width:1.5;"/>
   </g>
   <g id="patch_3">
    <path d="M 57.6 307.584 
L 57.6 41.472 
" style="fill:none;stroke:#000000;stroke-linecap:square;stroke-linejoin:miter;stroke-width:0.8;"/>
   </g>
   <g id="patch_4">
    <path d="M 414.72 307.584 
L 414.72 41.472 
" style="fill:none;stroke:#000000;stroke-linecap:square;stroke-linejoin:miter;stroke-width:0.8;"/>
   </g>
   <g id="patch_5">
    <path d="M 57.6 307.584 
L 414.72 307.584 
" style="fill:none;stroke:#000000;stroke-linecap:square;stroke-linejoin:miter;stroke-width:0.8;"/>
   </g>
   <g id="patch_6">
    <path d="M 57.6 41.472 
L 414.72 41.472 
" style="fill:none;stroke:#000000;stroke-linecap:square;stroke-linejoin:miter;stroke-width:0.8;"/>
   </g>
   <g id="legend_1">
    <g id="patch_7">
     <path d="M 64.6 95.850125 
L 219.2 95.850125 
Q 221.2 95.850125 221.2 93.850125 
L 221.2 48.472 
Q 221.2 46.472 219.2 46.472 
L 64.6 46.472 
Q 62.6 46.472 62.6 48.472 
L 62.6 93.850125 
Q 62.6 95.850125 64.6 95.850125 
z
" style="fill:#ffffff;opacity:0.8;stroke:#cccccc;stroke-linejoin:miter;"/>
    </g>
    <g id="line2d_8">
     <path d="M 66.6 55.392313 
L 86.6 55.392313 
" style="fill:none;stroke:#1f77b4;stroke-linecap:square;stroke-width:1.5;"/>
    </g>
    <g id="line2d_9"/>
    <g id="text_6">
     <!-- $X1 = PositiveReLU(Z)^{ 0.5 }$ -->
     <g transform="translate(94.6 58.892313)scale(0.1 -0.1)">
      <defs>
       <path d="M 878 4666 
L 1516 4666 
L 2316 2981 
L 3763 4666 
L 4500 4666 
L 2578 2438 
L 3738 0 
L 3103 0 
L 2163 1966 
L 459 0 
L -275 0 
L 1906 2509 
L 878 4666 
z
" id="DejaVuSans-Oblique-58" transform="scale(0.015625)"/>
       <path d="M 794 531 
L 1825 531 
L 1825 4091 
L 703 3866 
L 703 4441 
L 1819 4666 
L 2450 4666 
L 2450 531 
L 3481 531 
L 3481 0 
L 794 0 
L 794 531 
z
" id="DejaVuSans-31" transform="scale(0.015625)"/>
       <path d="M 678 2906 
L 4684 2906 
L 4684 2381 
L 678 2381 
L 678 2906 
z
M 678 1631 
L 4684 1631 
L 4684 1100 
L 678 1100 
L 678 1631 
z
" id="DejaVuSans-3d" transform="scale(0.015625)"/>
       <path d="M 1081 4666 
L 2541 4666 
Q 3178 4666 3512 4369 
Q 3847 4072 3847 3500 
Q 3847 2731 3353 2303 
Q 2859 1875 1966 1875 
L 1172 1875 
L 806 0 
L 172 0 
L 1081 4666 
z
M 1613 4147 
L 1275 2394 
L 2069 2394 
Q 2606 2394 2893 2669 
Q 3181 2944 3181 3456 
Q 3181 3784 2986 3965 
Q 2791 4147 2438 4147 
L 1613 4147 
z
" id="DejaVuSans-Oblique-50" transform="scale(0.015625)"/>
       <path d="M 1625 -91 
Q 1009 -91 651 289 
Q 294 669 294 1325 
Q 294 1706 417 2101 
Q 541 2497 738 2766 
Q 1047 3184 1428 3384 
Q 1809 3584 2291 3584 
Q 2888 3584 3255 3212 
Q 3622 2841 3622 2241 
Q 3622 1825 3500 1412 
Q 3378 1000 3181 728 
Q 2875 309 2494 109 
Q 2113 -91 1625 -91 
z
M 891 1344 
Q 891 869 1089 633 
Q 1288 397 1691 397 
Q 2269 397 2648 901 
Q 3028 1406 3028 2181 
Q 3028 2634 2825 2865 
Q 2622 3097 2228 3097 
Q 1903 3097 1650 2945 
Q 1397 2794 1197 2484 
Q 1050 2253 970 1956 
Q 891 1659 891 1344 
z
" id="DejaVuSans-Oblique-6f" transform="scale(0.015625)"/>
       <path d="M 3200 3397 
L 3091 2853 
Q 2863 2978 2609 3040 
Q 2356 3103 2088 3103 
Q 1634 3103 1373 2948 
Q 1113 2794 1113 2528 
Q 1113 2219 1719 2053 
Q 1766 2041 1788 2034 
L 1972 1978 
Q 2547 1819 2739 1644 
Q 2931 1469 2931 1166 
Q 2931 609 2489 259 
Q 2047 -91 1331 -91 
Q 1053 -91 747 -37 
Q 441 16 72 128 
L 184 722 
Q 500 559 806 475 
Q 1113 391 1394 391 
Q 1816 391 2080 572 
Q 2344 753 2344 1031 
Q 2344 1331 1650 1516 
L 1591 1531 
L 1394 1581 
Q 956 1697 753 1886 
Q 550 2075 550 2369 
Q 550 2928 970 3256 
Q 1391 3584 2113 3584 
Q 2397 3584 2667 3537 
Q 2938 3491 3200 3397 
z
" id="DejaVuSans-Oblique-73" transform="scale(0.015625)"/>
       <path d="M 1172 4863 
L 1747 4863 
L 1606 4134 
L 1031 4134 
L 1172 4863 
z
M 909 3500 
L 1484 3500 
L 800 0 
L 225 0 
L 909 3500 
z
" id="DejaVuSans-Oblique-69" transform="scale(0.015625)"/>
       <path d="M 2706 3500 
L 2619 3053 
L 1472 3053 
L 1100 1153 
Q 1081 1047 1072 975 
Q 1063 903 1063 863 
Q 1063 663 1183 572 
Q 1303 481 1569 481 
L 2150 481 
L 2053 0 
L 1503 0 
Q 991 0 739 200 
Q 488 400 488 806 
Q 488 878 497 964 
Q 506 1050 525 1153 
L 897 3053 
L 409 3053 
L 500 3500 
L 978 3500 
L 1172 4494 
L 1747 4494 
L 1556 3500 
L 2706 3500 
z
" id="DejaVuSans-Oblique-74" transform="scale(0.015625)"/>
       <path d="M 459 3500 
L 1069 3500 
L 1581 525 
L 3256 3500 
L 3866 3500 
L 1875 0 
L 1100 0 
L 459 3500 
z
" id="DejaVuSans-Oblique-76" transform="scale(0.015625)"/>
       <path d="M 3078 2063 
Q 3088 2113 3092 2166 
Q 3097 2219 3097 2272 
Q 3097 2653 2873 2875 
Q 2650 3097 2266 3097 
Q 1838 3097 1509 2826 
Q 1181 2556 1013 2059 
L 3078 2063 
z
M 3578 1613 
L 903 1613 
Q 884 1494 878 1425 
Q 872 1356 872 1306 
Q 872 872 1139 634 
Q 1406 397 1894 397 
Q 2269 397 2603 481 
Q 2938 566 3225 728 
L 3116 159 
Q 2806 34 2476 -28 
Q 2147 -91 1806 -91 
Q 1078 -91 686 257 
Q 294 606 294 1247 
Q 294 1794 489 2264 
Q 684 2734 1063 3103 
Q 1306 3334 1642 3459 
Q 1978 3584 2356 3584 
Q 2950 3584 3301 3228 
Q 3653 2872 3653 2272 
Q 3653 2128 3634 1964 
Q 3616 1800 3578 1613 
z
" id="DejaVuSans-Oblique-65" transform="scale(0.015625)"/>
       <path d="M 1613 4147 
L 1294 2491 
L 2106 2491 
Q 2584 2491 2879 2755 
Q 3175 3019 3175 3444 
Q 3175 3784 2976 3965 
Q 2778 4147 2406 4147 
L 1613 4147 
z
M 2772 2241 
Q 2972 2194 3105 2009 
Q 3238 1825 3413 1275 
L 3809 0 
L 3144 0 
L 2778 1197 
Q 2638 1659 2453 1815 
Q 2269 1972 1888 1972 
L 1191 1972 
L 806 0 
L 172 0 
L 1081 4666 
L 2503 4666 
Q 3150 4666 3495 4373 
Q 3841 4081 3841 3531 
Q 3841 3044 3547 2687 
Q 3253 2331 2772 2241 
z
" id="DejaVuSans-Oblique-52" transform="scale(0.015625)"/>
       <path d="M 1075 4666 
L 1709 4666 
L 909 525 
L 3181 525 
L 3078 0 
L 172 0 
L 1075 4666 
z
" id="DejaVuSans-Oblique-4c" transform="scale(0.015625)"/>
       <path d="M 991 4666 
L 1625 4666 
L 1075 1831 
Q 1041 1641 1027 1517 
Q 1013 1394 1013 1300 
Q 1013 869 1253 645 
Q 1494 422 1959 422 
Q 2563 422 2898 753 
Q 3234 1084 3378 1831 
L 3928 4666 
L 4563 4666 
L 4000 1753 
Q 3816 809 3300 359 
Q 2784 -91 1888 -91 
Q 1188 -91 780 261 
Q 372 613 372 1216 
Q 372 1325 387 1461 
Q 403 1597 434 1753 
L 991 4666 
z
" id="DejaVuSans-Oblique-55" transform="scale(0.015625)"/>
       <path d="M 1984 4856 
Q 1566 4138 1362 3434 
Q 1159 2731 1159 2009 
Q 1159 1288 1364 580 
Q 1569 -128 1984 -844 
L 1484 -844 
Q 1016 -109 783 600 
Q 550 1309 550 2009 
Q 550 2706 781 3412 
Q 1013 4119 1484 4856 
L 1984 4856 
z
" id="DejaVuSans-28" transform="scale(0.015625)"/>
       <path d="M 838 4666 
L 4500 4666 
L 4409 4184 
L 794 531 
L 3769 531 
L 3669 0 
L -141 0 
L -50 481 
L 3566 4134 
L 738 4134 
L 838 4666 
z
" id="DejaVuSans-Oblique-5a" transform="scale(0.015625)"/>
       <path d="M 513 4856 
L 1013 4856 
Q 1481 4119 1714 3412 
Q 1947 2706 1947 2009 
Q 1947 1309 1714 600 
Q 1481 -109 1013 -844 
L 513 -844 
Q 928 -128 1133 580 
Q 1338 1288 1338 2009 
Q 1338 2731 1133 3434 
Q 928 4138 513 4856 
z
" id="DejaVuSans-29" transform="scale(0.015625)"/>
       <path d="M 684 794 
L 1344 794 
L 1344 0 
L 684 0 
L 684 794 
z
" id="DejaVuSans-2e" transform="scale(0.015625)"/>
       <path d="M 691 4666 
L 3169 4666 
L 3169 4134 
L 1269 4134 
L 1269 2991 
Q 1406 3038 1543 3061 
Q 1681 3084 1819 3084 
Q 2600 3084 3056 2656 
Q 3513 2228 3513 1497 
Q 3513 744 3044 326 
Q 2575 -91 1722 -91 
Q 1428 -91 1123 -41 
Q 819 9 494 109 
L 494 744 
Q 775 591 1075 516 
Q 1375 441 1709 441 
Q 2250 441 2565 725 
Q 2881 1009 2881 1497 
Q 2881 1984 2565 2268 
Q 2250 2553 1709 2553 
Q 1456 2553 1204 2497 
Q 953 2441 691 2322 
L 691 4666 
z
" id="DejaVuSans-35" transform="scale(0.015625)"/>
      </defs>
      <use transform="translate(0 0.765625)" xlink:href="#DejaVuSans-Oblique-58"/>
      <use transform="translate(68.505859 0.765625)" xlink:href="#DejaVuSans-31"/>
      <use transform="translate(151.611328 0.765625)" xlink:href="#DejaVuSans-3d"/>
      <use transform="translate(254.882812 0.765625)" xlink:href="#DejaVuSans-Oblique-50"/>
      <use transform="translate(315.185547 0.765625)" xlink:href="#DejaVuSans-Oblique-6f"/>
      <use transform="translate(376.367188 0.765625)" xlink:href="#DejaVuSans-Oblique-73"/>
      <use transform="translate(428.466797 0.765625)" xlink:href="#DejaVuSans-Oblique-69"/>
      <use transform="translate(456.25 0.765625)" xlink:href="#DejaVuSans-Oblique-74"/>
      <use transform="translate(495.458984 0.765625)" xlink:href="#DejaVuSans-Oblique-69"/>
      <use transform="translate(523.242188 0.765625)" xlink:href="#DejaVuSans-Oblique-76"/>
      <use transform="translate(582.421875 0.765625)" xlink:href="#DejaVuSans-Oblique-65"/>
      <use transform="translate(643.945312 0.765625)" xlink:href="#DejaVuSans-Oblique-52"/>
      <use transform="translate(713.427734 0.765625)" xlink:href="#DejaVuSans-Oblique-65"/>
      <use transform="translate(774.951172 0.765625)" xlink:href="#DejaVuSans-Oblique-4c"/>
      <use transform="translate(830.664062 0.765625)" xlink:href="#DejaVuSans-Oblique-55"/>
      <use transform="translate(903.857422 0.765625)" xlink:href="#DejaVuSans-28"/>
      <use transform="translate(942.871094 0.765625)" xlink:href="#DejaVuSans-Oblique-5a"/>
      <use transform="translate(1011.376953 0.765625)" xlink:href="#DejaVuSans-29"/>
      <use transform="translate(1051.347656 39.046875)scale(0.7)" xlink:href="#DejaVuSans-30"/>
      <use transform="translate(1095.883789 39.046875)scale(0.7)" xlink:href="#DejaVuSans-2e"/>
      <use transform="translate(1118.134766 39.046875)scale(0.7)" xlink:href="#DejaVuSans-35"/>
     </g>
    </g>
    <g id="line2d_10">
     <path d="M 66.6 71.572 
L 86.6 71.572 
" style="fill:none;stroke:#ff7f0e;stroke-linecap:square;stroke-width:1.5;"/>
    </g>
    <g id="line2d_11"/>
    <g id="text_7">
     <!-- $X2 = NegativeReLU(Z)^{ 0.5 }$ -->
     <g transform="translate(94.6 75.072)scale(0.1 -0.1)">
      <defs>
       <path d="M 1081 4666 
L 1931 4666 
L 3219 666 
L 4000 4666 
L 4616 4666 
L 3706 0 
L 2853 0 
L 1569 4025 
L 788 0 
L 172 0 
L 1081 4666 
z
" id="DejaVuSans-Oblique-4e" transform="scale(0.015625)"/>
       <path d="M 3816 3500 
L 3219 434 
Q 3047 -456 2561 -893 
Q 2075 -1331 1253 -1331 
Q 950 -1331 690 -1286 
Q 431 -1241 206 -1147 
L 313 -588 
Q 525 -725 762 -790 
Q 1000 -856 1269 -856 
Q 1816 -856 2167 -557 
Q 2519 -259 2631 300 
L 2681 563 
Q 2441 288 2122 144 
Q 1803 0 1434 0 
Q 903 0 598 351 
Q 294 703 294 1319 
Q 294 1803 478 2267 
Q 663 2731 997 3091 
Q 1219 3328 1514 3456 
Q 1809 3584 2131 3584 
Q 2484 3584 2746 3420 
Q 3009 3256 3138 2956 
L 3238 3500 
L 3816 3500 
z
M 2950 2216 
Q 2950 2641 2750 2872 
Q 2550 3103 2181 3103 
Q 1953 3103 1747 3012 
Q 1541 2922 1394 2759 
Q 1156 2491 1023 2127 
Q 891 1763 891 1375 
Q 891 944 1092 712 
Q 1294 481 1672 481 
Q 2219 481 2584 976 
Q 2950 1472 2950 2216 
z
" id="DejaVuSans-Oblique-67" transform="scale(0.015625)"/>
       <path d="M 3438 1997 
L 3047 0 
L 2472 0 
L 2578 531 
Q 2325 219 2001 64 
Q 1678 -91 1281 -91 
Q 834 -91 548 182 
Q 263 456 263 884 
Q 263 1497 752 1853 
Q 1241 2209 2100 2209 
L 2900 2209 
L 2931 2363 
Q 2938 2388 2941 2417 
Q 2944 2447 2944 2509 
Q 2944 2788 2717 2942 
Q 2491 3097 2081 3097 
Q 1800 3097 1504 3025 
Q 1209 2953 897 2809 
L 997 3341 
Q 1322 3463 1633 3523 
Q 1944 3584 2234 3584 
Q 2853 3584 3176 3315 
Q 3500 3047 3500 2534 
Q 3500 2431 3484 2292 
Q 3469 2153 3438 1997 
z
M 2816 1759 
L 2241 1759 
Q 1534 1759 1195 1570 
Q 856 1381 856 984 
Q 856 709 1029 553 
Q 1203 397 1509 397 
Q 1978 397 2328 733 
Q 2678 1069 2791 1631 
L 2816 1759 
z
" id="DejaVuSans-Oblique-61" transform="scale(0.015625)"/>
      </defs>
      <use transform="translate(0 0.765625)" xlink:href="#DejaVuSans-Oblique-58"/>
      <use transform="translate(68.505859 0.765625)" xlink:href="#DejaVuSans-32"/>
      <use transform="translate(151.611328 0.765625)" xlink:href="#DejaVuSans-3d"/>
      <use transform="translate(254.882812 0.765625)" xlink:href="#DejaVuSans-Oblique-4e"/>
      <use transform="translate(329.6875 0.765625)" xlink:href="#DejaVuSans-Oblique-65"/>
      <use transform="translate(391.210938 0.765625)" xlink:href="#DejaVuSans-Oblique-67"/>
      <use transform="translate(454.6875 0.765625)" xlink:href="#DejaVuSans-Oblique-61"/>
      <use transform="translate(515.966797 0.765625)" xlink:href="#DejaVuSans-Oblique-74"/>
      <use transform="translate(555.175781 0.765625)" xlink:href="#DejaVuSans-Oblique-69"/>
      <use transform="translate(582.958984 0.765625)" xlink:href="#DejaVuSans-Oblique-76"/>
      <use transform="translate(642.138672 0.765625)" xlink:href="#DejaVuSans-Oblique-65"/>
      <use transform="translate(703.662109 0.765625)" xlink:href="#DejaVuSans-Oblique-52"/>
      <use transform="translate(773.144531 0.765625)" xlink:href="#DejaVuSans-Oblique-65"/>
      <use transform="translate(834.667969 0.765625)" xlink:href="#DejaVuSans-Oblique-4c"/>
      <use transform="translate(890.380859 0.765625)" xlink:href="#DejaVuSans-Oblique-55"/>
      <use transform="translate(963.574219 0.765625)" xlink:href="#DejaVuSans-28"/>
      <use transform="translate(1002.587891 0.765625)" xlink:href="#DejaVuSans-Oblique-5a"/>
      <use transform="translate(1071.09375 0.765625)" xlink:href="#DejaVuSans-29"/>
      <use transform="translate(1111.064453 39.046875)scale(0.7)" xlink:href="#DejaVuSans-30"/>
      <use transform="translate(1155.600586 39.046875)scale(0.7)" xlink:href="#DejaVuSans-2e"/>
      <use transform="translate(1177.851562 39.046875)scale(0.7)" xlink:href="#DejaVuSans-35"/>
     </g>
    </g>
    <g id="patch_8">
     <path d="M 66.6 89.770438 
L 86.6 89.770438 
L 86.6 82.770438 
L 66.6 82.770438 
z
" style="fill:#008000;fill-opacity:0.5;stroke:#008000;stroke-linejoin:miter;"/>
    </g>
    <g id="text_8">
     <!-- $Z = \mathcal{N}(0,1)$ -->
     <g transform="translate(94.6 89.770438)scale(0.1 -0.1)">
      <defs>
       <path d="M 4294 800 
L 4301 800 
Q 5293 4070 5408 4378 
Q 5472 4538 5523 4614 
Q 5830 5088 6253 5088 
Q 6490 5088 6650 4931 
Q 6810 4774 6810 4550 
Q 6810 4378 6720 4272 
Q 6630 4166 6470 4166 
Q 6368 4166 6297 4224 
Q 6227 4282 6198 4349 
Q 6170 4416 6118 4473 
Q 6067 4531 6003 4531 
Q 5939 4531 5881 4508 
Q 5824 4486 5785 4457 
Q 5747 4429 5705 4371 
Q 5664 4314 5638 4275 
Q 5613 4237 5584 4163 
Q 5555 4090 5545 4058 
Q 5536 4026 5510 3952 
Q 5485 3878 5485 3866 
L 4262 -154 
L 4134 -154 
Q 3078 1280 2483 2893 
L 2470 2893 
Q 2406 2579 2358 2361 
Q 2310 2144 2214 1792 
Q 2118 1440 2028 1190 
Q 1939 941 1804 653 
Q 1670 365 1529 185 
Q 1389 6 1203 -115 
Q 1018 -237 813 -237 
Q 576 -237 416 -80 
Q 256 77 256 301 
Q 256 474 345 579 
Q 435 685 595 685 
Q 698 685 768 627 
Q 838 570 867 502 
Q 896 435 947 377 
Q 998 320 1062 320 
Q 1222 320 1369 480 
Q 1517 640 1638 928 
Q 1760 1216 1862 1542 
Q 1965 1869 2057 2288 
Q 2150 2707 2214 3033 
Q 2278 3360 2348 3741 
Q 2419 4122 2458 4294 
L 2630 4294 
Q 2682 4166 2874 3680 
Q 3066 3194 3142 3008 
Q 3219 2822 3392 2422 
Q 3565 2022 3683 1798 
Q 3802 1574 3968 1292 
Q 4134 1011 4294 800 
z
" id="STIXNonUnicode-Italic-e23a" transform="scale(0.015625)"/>
       <path d="M 750 794 
L 1409 794 
L 1409 256 
L 897 -744 
L 494 -744 
L 750 256 
L 750 794 
z
" id="DejaVuSans-2c" transform="scale(0.015625)"/>
      </defs>
      <use transform="translate(0 0.5)" xlink:href="#DejaVuSans-Oblique-5a"/>
      <use transform="translate(87.988281 0.5)" xlink:href="#DejaVuSans-3d"/>
      <use transform="translate(191.259766 0.5)" xlink:href="#STIXNonUnicode-Italic-e23a"/>
      <use transform="translate(286.959747 0.5)" xlink:href="#DejaVuSans-28"/>
      <use transform="translate(325.973419 0.5)" xlink:href="#DejaVuSans-30"/>
      <use transform="translate(389.596466 0.5)" xlink:href="#DejaVuSans-2c"/>
      <use transform="translate(440.865997 0.5)" xlink:href="#DejaVuSans-31"/>
      <use transform="translate(504.489044 0.5)" xlink:href="#DejaVuSans-29"/>
     </g>
    </g>
   </g>
  </g>
 </g>
 <defs>
  <clipPath id="p45cb8ab0a9">
   <rect height="266.112" width="357.12" x="57.6" y="41.472"/>
  </clipPath>
 </defs>
</svg>
