<?xml version="1.0" encoding="utf-8" standalone="no"?>
<!DOCTYPE svg PUBLIC "-//W3C//DTD SVG 1.1//EN"
  "http://www.w3.org/Graphics/SVG/1.1/DTD/svg11.dtd">
<svg height="345.6pt" version="1.1" viewBox="0 0 460.8 345.6" width="460.8pt" xmlns="http://www.w3.org/2000/svg" xmlns:xlink="http://www.w3.org/1999/xlink">
 <metadata>
  <rdf:RDF xmlns:cc="http://creativecommons.org/ns#" xmlns:dc="http://purl.org/dc/elements/1.1/" xmlns:rdf="http://www.w3.org/1999/02/22-rdf-syntax-ns#">
   <cc:Work>
    <dc:type rdf:resource="http://purl.org/dc/dcmitype/StillImage"/>
    <dc:date>2024-05-16T20:08:14.660456</dc:date>
    <dc:format>image/svg+xml</dc:format>
    <dc:creator>
     <cc:Agent>
      <dc:title>Matplotlib v3.4.3, https://matplotlib.org/</dc:title>
     </cc:Agent>
    </dc:creator>
   </cc:Work>
  </rdf:RDF>
 </metadata>
 <defs>
  <style type="text/css">*{stroke-linecap:butt;stroke-linejoin:round;}</style>
 </defs>
 <g id="figure_1">
  <g id="patch_1">
   <path d="M 0 345.6 
L 460.8 345.6 
L 460.8 0 
L 0 0 
z
" style="fill:#ffffff;"/>
  </g>
  <g id="axes_1">
   <g id="patch_2">
    <path d="M 57.6 307.584 
L 414.72 307.584 
L 414.72 41.472 
L 57.6 41.472 
z
" style="fill:#ffffff;"/>
   </g>
   <g id="PolyCollection_1">
    <defs>
     <path d="M 73.832727 -171.262162 
L 73.832727 -171.158524 
L 79.069091 -171.158524 
L 84.305455 -171.158524 
L 89.541818 -171.158524 
L 94.778182 -171.158524 
L 100.014545 -171.158524 
L 105.250909 -171.158524 
L 110.487273 -171.158524 
L 115.723636 -171.158524 
L 120.96 -171.158524 
L 126.196364 -171.158524 
L 131.432727 -171.158524 
L 136.669091 -171.158524 
L 141.905455 -171.158524 
L 147.141818 -171.158524 
L 152.378182 -171.158524 
L 157.614545 -171.158524 
L 162.850909 -171.158524 
L 168.087273 -171.158524 
L 173.323636 -171.158524 
L 178.56 -171.158524 
L 183.796364 -171.158524 
L 189.032727 -171.158524 
L 194.269091 -171.158524 
L 199.505455 -171.158524 
L 204.741818 -171.158524 
L 209.978182 -171.158524 
L 215.214545 -171.158524 
L 220.450909 -171.158524 
L 225.687273 -171.158524 
L 230.923636 -171.158524 
L 236.16 -171.158524 
L 241.396364 -171.158524 
L 246.632727 -171.158524 
L 251.869091 -171.158524 
L 257.105455 -171.158524 
L 262.341818 -171.158524 
L 267.578182 -171.158524 
L 272.814545 -171.158524 
L 278.050909 -171.158524 
L 283.287273 -171.158524 
L 288.523636 -171.158524 
L 293.76 -171.158524 
L 298.996364 -171.158524 
L 304.232727 -171.158524 
L 309.469091 -171.158524 
L 314.705455 -171.158524 
L 319.941818 -171.158524 
L 325.178182 -171.158524 
L 330.414545 -171.158524 
L 335.650909 -171.158524 
L 340.887273 -171.158524 
L 346.123636 -171.158524 
L 351.36 -171.158524 
L 356.596364 -171.158524 
L 361.832727 -171.158524 
L 367.069091 -171.158524 
L 372.305455 -171.158524 
L 377.541818 -171.158524 
L 382.778182 -171.158524 
L 388.014545 -171.158524 
L 393.250909 -171.158524 
L 398.487273 -171.158524 
L 398.487273 -171.210343 
L 398.487273 -171.210343 
L 393.250909 -171.210343 
L 388.014545 -171.158524 
L 382.778182 -171.210343 
L 377.541818 -171.210343 
L 372.305455 -171.158524 
L 367.069091 -171.469439 
L 361.832727 -171.521259 
L 356.596364 -171.728536 
L 351.36 -171.573078 
L 346.123636 -172.298548 
L 340.887273 -172.091271 
L 335.650909 -172.661283 
L 330.414545 -173.024017 
L 325.178182 -173.127656 
L 319.941818 -174.215861 
L 314.705455 -175.614981 
L 309.469091 -177.065921 
L 304.232727 -178.827776 
L 298.996364 -179.812342 
L 293.76 -180.69327 
L 288.523636 -181.729655 
L 283.287273 -183.54333 
L 278.050909 -185.927017 
L 272.814545 -186.600667 
L 267.578182 -190.072558 
L 262.341818 -190.279835 
L 257.105455 -192.81898 
L 251.869091 -195.772678 
L 246.632727 -195.876317 
L 241.396364 -195.254486 
L 236.16 -194.94357 
L 230.923636 -198.674558 
L 225.687273 -196.031775 
L 220.450909 -195.876317 
L 215.214545 -195.306305 
L 209.978182 -194.2181 
L 204.741818 -191.36804 
L 199.505455 -188.414342 
L 194.269091 -186.756125 
L 189.032727 -185.253366 
L 183.796364 -184.061523 
L 178.56 -181.781475 
L 173.323636 -179.915981 
L 168.087273 -178.620499 
L 162.850909 -177.635933 
L 157.614545 -176.547728 
L 152.378182 -174.99315 
L 147.141818 -174.319499 
L 141.905455 -173.697668 
L 136.669091 -173.075837 
L 131.432727 -172.920379 
L 126.196364 -172.039451 
L 120.96 -172.039451 
L 115.723636 -171.521259 
L 110.487273 -171.573078 
L 105.250909 -171.469439 
L 100.014545 -171.210343 
L 94.778182 -171.210343 
L 89.541818 -171.210343 
L 84.305455 -171.313981 
L 79.069091 -171.158524 
L 73.832727 -171.262162 
z
" id="m116e816247" style="stroke:#008000;"/>
    </defs>
    <g clip-path="url(#p17e3e18e3e)">
     <use style="fill:#008000;fill-opacity:0.5;stroke:#008000;" x="0" xlink:href="#m116e816247" y="345.6"/>
    </g>
   </g>
   <g id="PolyCollection_2"/>
   <g id="PolyCollection_3"/>
   <g id="matplotlib.axis_1">
    <g id="xtick_1">
     <g id="line2d_1">
      <defs>
       <path d="M 0 0 
L 0 3.5 
" id="m317bc7774b" style="stroke:#000000;stroke-width:0.8;"/>
      </defs>
      <g>
       <use style="stroke:#000000;stroke-width:0.8;" x="66.520588" xlink:href="#m317bc7774b" y="307.584"/>
      </g>
     </g>
     <g id="text_1">
      <!-- −4 -->
      <g transform="translate(59.149494 322.182437)scale(0.1 -0.1)">
       <defs>
        <path d="M 678 2272 
L 4684 2272 
L 4684 1741 
L 678 1741 
L 678 2272 
z
" id="DejaVuSans-2212" transform="scale(0.015625)"/>
        <path d="M 2419 4116 
L 825 1625 
L 2419 1625 
L 2419 4116 
z
M 2253 4666 
L 3047 4666 
L 3047 1625 
L 3713 1625 
L 3713 1100 
L 3047 1100 
L 3047 0 
L 2419 0 
L 2419 1100 
L 313 1100 
L 313 1709 
L 2253 4666 
z
" id="DejaVuSans-34" transform="scale(0.015625)"/>
       </defs>
       <use xlink:href="#DejaVuSans-2212"/>
       <use x="83.789062" xlink:href="#DejaVuSans-34"/>
      </g>
     </g>
    </g>
    <g id="xtick_2">
     <g id="line2d_2">
      <g>
       <use style="stroke:#000000;stroke-width:0.8;" x="108.458115" xlink:href="#m317bc7774b" y="307.584"/>
      </g>
     </g>
     <g id="text_2">
      <!-- −3 -->
      <g transform="translate(101.087021 322.182437)scale(0.1 -0.1)">
       <defs>
        <path d="M 2597 2516 
Q 3050 2419 3304 2112 
Q 3559 1806 3559 1356 
Q 3559 666 3084 287 
Q 2609 -91 1734 -91 
Q 1441 -91 1130 -33 
Q 819 25 488 141 
L 488 750 
Q 750 597 1062 519 
Q 1375 441 1716 441 
Q 2309 441 2620 675 
Q 2931 909 2931 1356 
Q 2931 1769 2642 2001 
Q 2353 2234 1838 2234 
L 1294 2234 
L 1294 2753 
L 1863 2753 
Q 2328 2753 2575 2939 
Q 2822 3125 2822 3475 
Q 2822 3834 2567 4026 
Q 2313 4219 1838 4219 
Q 1578 4219 1281 4162 
Q 984 4106 628 3988 
L 628 4550 
Q 988 4650 1302 4700 
Q 1616 4750 1894 4750 
Q 2613 4750 3031 4423 
Q 3450 4097 3450 3541 
Q 3450 3153 3228 2886 
Q 3006 2619 2597 2516 
z
" id="DejaVuSans-33" transform="scale(0.015625)"/>
       </defs>
       <use xlink:href="#DejaVuSans-2212"/>
       <use x="83.789062" xlink:href="#DejaVuSans-33"/>
      </g>
     </g>
    </g>
    <g id="xtick_3">
     <g id="line2d_3">
      <g>
       <use style="stroke:#000000;stroke-width:0.8;" x="150.395642" xlink:href="#m317bc7774b" y="307.584"/>
      </g>
     </g>
     <g id="text_3">
      <!-- −2 -->
      <g transform="translate(143.024548 322.182437)scale(0.1 -0.1)">
       <defs>
        <path d="M 1228 531 
L 3431 531 
L 3431 0 
L 469 0 
L 469 531 
Q 828 903 1448 1529 
Q 2069 2156 2228 2338 
Q 2531 2678 2651 2914 
Q 2772 3150 2772 3378 
Q 2772 3750 2511 3984 
Q 2250 4219 1831 4219 
Q 1534 4219 1204 4116 
Q 875 4013 500 3803 
L 500 4441 
Q 881 4594 1212 4672 
Q 1544 4750 1819 4750 
Q 2544 4750 2975 4387 
Q 3406 4025 3406 3419 
Q 3406 3131 3298 2873 
Q 3191 2616 2906 2266 
Q 2828 2175 2409 1742 
Q 1991 1309 1228 531 
z
" id="DejaVuSans-32" transform="scale(0.015625)"/>
       </defs>
       <use xlink:href="#DejaVuSans-2212"/>
       <use x="83.789062" xlink:href="#DejaVuSans-32"/>
      </g>
     </g>
    </g>
    <g id="xtick_4">
     <g id="line2d_4">
      <g>
       <use style="stroke:#000000;stroke-width:0.8;" x="192.333169" xlink:href="#m317bc7774b" y="307.584"/>
      </g>
     </g>
     <g id="text_4">
      <!-- −1 -->
      <g transform="translate(184.962075 322.182437)scale(0.1 -0.1)">
       <defs>
        <path d="M 794 531 
L 1825 531 
L 1825 4091 
L 703 3866 
L 703 4441 
L 1819 4666 
L 2450 4666 
L 2450 531 
L 3481 531 
L 3481 0 
L 794 0 
L 794 531 
z
" id="DejaVuSans-31" transform="scale(0.015625)"/>
       </defs>
       <use xlink:href="#DejaVuSans-2212"/>
       <use x="83.789062" xlink:href="#DejaVuSans-31"/>
      </g>
     </g>
    </g>
    <g id="xtick_5">
     <g id="line2d_5">
      <g>
       <use style="stroke:#000000;stroke-width:0.8;" x="234.270696" xlink:href="#m317bc7774b" y="307.584"/>
      </g>
     </g>
     <g id="text_5">
      <!-- 0 -->
      <g transform="translate(231.089446 322.182437)scale(0.1 -0.1)">
       <defs>
        <path d="M 2034 4250 
Q 1547 4250 1301 3770 
Q 1056 3291 1056 2328 
Q 1056 1369 1301 889 
Q 1547 409 2034 409 
Q 2525 409 2770 889 
Q 3016 1369 3016 2328 
Q 3016 3291 2770 3770 
Q 2525 4250 2034 4250 
z
M 2034 4750 
Q 2819 4750 3233 4129 
Q 3647 3509 3647 2328 
Q 3647 1150 3233 529 
Q 2819 -91 2034 -91 
Q 1250 -91 836 529 
Q 422 1150 422 2328 
Q 422 3509 836 4129 
Q 1250 4750 2034 4750 
z
" id="DejaVuSans-30" transform="scale(0.015625)"/>
       </defs>
       <use xlink:href="#DejaVuSans-30"/>
      </g>
     </g>
    </g>
    <g id="xtick_6">
     <g id="line2d_6">
      <g>
       <use style="stroke:#000000;stroke-width:0.8;" x="276.208223" xlink:href="#m317bc7774b" y="307.584"/>
      </g>
     </g>
     <g id="text_6">
      <!-- 1 -->
      <g transform="translate(273.026973 322.182437)scale(0.1 -0.1)">
       <use xlink:href="#DejaVuSans-31"/>
      </g>
     </g>
    </g>
    <g id="xtick_7">
     <g id="line2d_7">
      <g>
       <use style="stroke:#000000;stroke-width:0.8;" x="318.14575" xlink:href="#m317bc7774b" y="307.584"/>
      </g>
     </g>
     <g id="text_7">
      <!-- 2 -->
      <g transform="translate(314.9645 322.182437)scale(0.1 -0.1)">
       <use xlink:href="#DejaVuSans-32"/>
      </g>
     </g>
    </g>
    <g id="xtick_8">
     <g id="line2d_8">
      <g>
       <use style="stroke:#000000;stroke-width:0.8;" x="360.083277" xlink:href="#m317bc7774b" y="307.584"/>
      </g>
     </g>
     <g id="text_8">
      <!-- 3 -->
      <g transform="translate(356.902027 322.182437)scale(0.1 -0.1)">
       <use xlink:href="#DejaVuSans-33"/>
      </g>
     </g>
    </g>
    <g id="xtick_9">
     <g id="line2d_9">
      <g>
       <use style="stroke:#000000;stroke-width:0.8;" x="402.020804" xlink:href="#m317bc7774b" y="307.584"/>
      </g>
     </g>
     <g id="text_9">
      <!-- 4 -->
      <g transform="translate(398.839554 322.182437)scale(0.1 -0.1)">
       <use xlink:href="#DejaVuSans-34"/>
      </g>
     </g>
    </g>
   </g>
   <g id="matplotlib.axis_2"/>
   <g id="line2d_10">
    <path clip-path="url(#p17e3e18e3e)" d="M 87.489351 174.441476 
L 234.270696 174.441476 
L 234.690071 167.971268 
L 235.528822 163.234746 
L 236.367572 159.97365 
L 237.625698 156.140962 
L 238.883824 152.982221 
L 240.561325 149.382465 
L 242.658201 145.505823 
L 244.755078 142.090432 
L 247.271329 138.416878 
L 250.206956 134.55643 
L 253.561958 130.558385 
L 256.91696 126.895346 
L 260.691338 123.085786 
L 264.885091 119.159988 
L 269.498219 115.141033 
L 274.530722 111.046636 
L 279.9826 106.890513 
L 285.853854 102.683389 
L 292.563858 98.158839 
L 299.693238 93.628594 
L 307.241993 89.09356 
L 315.629498 84.321895 
L 324.436379 79.569591 
L 334.08201 74.623956 
L 344.147017 69.711997 
L 355.050774 64.638391 
L 366.793281 59.424528 
L 379.374539 54.088635 
L 380.632665 53.568 
L 380.632665 53.568 
" style="fill:none;stroke:#1f77b4;stroke-linecap:square;stroke-width:1.5;"/>
   </g>
   <g id="line2d_11">
    <path clip-path="url(#p17e3e18e3e)" d="M 87.489351 295.488 
L 100.07061 290.184091 
L 112.232492 284.814971 
L 123.555625 279.569927 
L 134.040006 274.468478 
L 143.685638 269.533738 
L 152.911894 264.561057 
L 161.299399 259.789393 
L 169.267529 254.994927 
L 176.396909 250.44922 
L 183.106913 245.907269 
L 189.397542 241.369837 
L 194.849421 237.172479 
L 199.881924 233.031709 
L 204.495052 228.960425 
L 208.688804 224.975423 
L 212.463182 221.098816 
L 215.818184 217.359986 
L 218.753811 213.79822 
L 221.689438 209.88027 
L 224.205689 206.138897 
L 226.302566 202.644463 
L 227.980067 199.500487 
L 229.657568 195.900731 
L 230.915694 192.741991 
L 232.17382 188.909303 
L 233.01257 185.648207 
L 233.431945 183.591733 
L 233.851321 180.911685 
L 234.270696 174.441494 
L 380.632665 174.441476 
L 380.632665 174.441476 
" style="fill:none;stroke:#ff7f0e;stroke-linecap:square;stroke-width:1.5;"/>
   </g>
   <g id="patch_3">
    <path d="M 57.6 307.584 
L 57.6 41.472 
" style="fill:none;stroke:#000000;stroke-linecap:square;stroke-linejoin:miter;stroke-width:0.8;"/>
   </g>
   <g id="patch_4">
    <path d="M 414.72 307.584 
L 414.72 41.472 
" style="fill:none;stroke:#000000;stroke-linecap:square;stroke-linejoin:miter;stroke-width:0.8;"/>
   </g>
   <g id="patch_5">
    <path d="M 57.6 307.584 
L 414.72 307.584 
" style="fill:none;stroke:#000000;stroke-linecap:square;stroke-linejoin:miter;stroke-width:0.8;"/>
   </g>
   <g id="patch_6">
    <path d="M 57.6 41.472 
L 414.72 41.472 
" style="fill:none;stroke:#000000;stroke-linecap:square;stroke-linejoin:miter;stroke-width:0.8;"/>
   </g>
   <g id="legend_1">
    <g id="patch_7">
     <path d="M 64.6 95.850125 
L 219.2 95.850125 
Q 221.2 95.850125 221.2 93.850125 
L 221.2 48.472 
Q 221.2 46.472 219.2 46.472 
L 64.6 46.472 
Q 62.6 46.472 62.6 48.472 
L 62.6 93.850125 
Q 62.6 95.850125 64.6 95.850125 
z
" style="fill:#ffffff;opacity:0.8;stroke:#cccccc;stroke-linejoin:miter;"/>
    </g>
    <g id="line2d_12">
     <path d="M 66.6 55.392313 
L 86.6 55.392313 
" style="fill:none;stroke:#1f77b4;stroke-linecap:square;stroke-width:1.5;"/>
    </g>
    <g id="line2d_13"/>
    <g id="text_10">
     <!-- $X1 = PositiveReLU(Z)^{ 0.5 }$ -->
     <g transform="translate(94.6 58.892313)scale(0.1 -0.1)">
      <defs>
       <path d="M 878 4666 
L 1516 4666 
L 2316 2981 
L 3763 4666 
L 4500 4666 
L 2578 2438 
L 3738 0 
L 3103 0 
L 2163 1966 
L 459 0 
L -275 0 
L 1906 2509 
L 878 4666 
z
" id="DejaVuSans-Oblique-58" transform="scale(0.015625)"/>
       <path d="M 678 2906 
L 4684 2906 
L 4684 2381 
L 678 2381 
L 678 2906 
z
M 678 1631 
L 4684 1631 
L 4684 1100 
L 678 1100 
L 678 1631 
z
" id="DejaVuSans-3d" transform="scale(0.015625)"/>
       <path d="M 1081 4666 
L 2541 4666 
Q 3178 4666 3512 4369 
Q 3847 4072 3847 3500 
Q 3847 2731 3353 2303 
Q 2859 1875 1966 1875 
L 1172 1875 
L 806 0 
L 172 0 
L 1081 4666 
z
M 1613 4147 
L 1275 2394 
L 2069 2394 
Q 2606 2394 2893 2669 
Q 3181 2944 3181 3456 
Q 3181 3784 2986 3965 
Q 2791 4147 2438 4147 
L 1613 4147 
z
" id="DejaVuSans-Oblique-50" transform="scale(0.015625)"/>
       <path d="M 1625 -91 
Q 1009 -91 651 289 
Q 294 669 294 1325 
Q 294 1706 417 2101 
Q 541 2497 738 2766 
Q 1047 3184 1428 3384 
Q 1809 3584 2291 3584 
Q 2888 3584 3255 3212 
Q 3622 2841 3622 2241 
Q 3622 1825 3500 1412 
Q 3378 1000 3181 728 
Q 2875 309 2494 109 
Q 2113 -91 1625 -91 
z
M 891 1344 
Q 891 869 1089 633 
Q 1288 397 1691 397 
Q 2269 397 2648 901 
Q 3028 1406 3028 2181 
Q 3028 2634 2825 2865 
Q 2622 3097 2228 3097 
Q 1903 3097 1650 2945 
Q 1397 2794 1197 2484 
Q 1050 2253 970 1956 
Q 891 1659 891 1344 
z
" id="DejaVuSans-Oblique-6f" transform="scale(0.015625)"/>
       <path d="M 3200 3397 
L 3091 2853 
Q 2863 2978 2609 3040 
Q 2356 3103 2088 3103 
Q 1634 3103 1373 2948 
Q 1113 2794 1113 2528 
Q 1113 2219 1719 2053 
Q 1766 2041 1788 2034 
L 1972 1978 
Q 2547 1819 2739 1644 
Q 2931 1469 2931 1166 
Q 2931 609 2489 259 
Q 2047 -91 1331 -91 
Q 1053 -91 747 -37 
Q 441 16 72 128 
L 184 722 
Q 500 559 806 475 
Q 1113 391 1394 391 
Q 1816 391 2080 572 
Q 2344 753 2344 1031 
Q 2344 1331 1650 1516 
L 1591 1531 
L 1394 1581 
Q 956 1697 753 1886 
Q 550 2075 550 2369 
Q 550 2928 970 3256 
Q 1391 3584 2113 3584 
Q 2397 3584 2667 3537 
Q 2938 3491 3200 3397 
z
" id="DejaVuSans-Oblique-73" transform="scale(0.015625)"/>
       <path d="M 1172 4863 
L 1747 4863 
L 1606 4134 
L 1031 4134 
L 1172 4863 
z
M 909 3500 
L 1484 3500 
L 800 0 
L 225 0 
L 909 3500 
z
" id="DejaVuSans-Oblique-69" transform="scale(0.015625)"/>
       <path d="M 2706 3500 
L 2619 3053 
L 1472 3053 
L 1100 1153 
Q 1081 1047 1072 975 
Q 1063 903 1063 863 
Q 1063 663 1183 572 
Q 1303 481 1569 481 
L 2150 481 
L 2053 0 
L 1503 0 
Q 991 0 739 200 
Q 488 400 488 806 
Q 488 878 497 964 
Q 506 1050 525 1153 
L 897 3053 
L 409 3053 
L 500 3500 
L 978 3500 
L 1172 4494 
L 1747 4494 
L 1556 3500 
L 2706 3500 
z
" id="DejaVuSans-Oblique-74" transform="scale(0.015625)"/>
       <path d="M 459 3500 
L 1069 3500 
L 1581 525 
L 3256 3500 
L 3866 3500 
L 1875 0 
L 1100 0 
L 459 3500 
z
" id="DejaVuSans-Oblique-76" transform="scale(0.015625)"/>
       <path d="M 3078 2063 
Q 3088 2113 3092 2166 
Q 3097 2219 3097 2272 
Q 3097 2653 2873 2875 
Q 2650 3097 2266 3097 
Q 1838 3097 1509 2826 
Q 1181 2556 1013 2059 
L 3078 2063 
z
M 3578 1613 
L 903 1613 
Q 884 1494 878 1425 
Q 872 1356 872 1306 
Q 872 872 1139 634 
Q 1406 397 1894 397 
Q 2269 397 2603 481 
Q 2938 566 3225 728 
L 3116 159 
Q 2806 34 2476 -28 
Q 2147 -91 1806 -91 
Q 1078 -91 686 257 
Q 294 606 294 1247 
Q 294 1794 489 2264 
Q 684 2734 1063 3103 
Q 1306 3334 1642 3459 
Q 1978 3584 2356 3584 
Q 2950 3584 3301 3228 
Q 3653 2872 3653 2272 
Q 3653 2128 3634 1964 
Q 3616 1800 3578 1613 
z
" id="DejaVuSans-Oblique-65" transform="scale(0.015625)"/>
       <path d="M 1613 4147 
L 1294 2491 
L 2106 2491 
Q 2584 2491 2879 2755 
Q 3175 3019 3175 3444 
Q 3175 3784 2976 3965 
Q 2778 4147 2406 4147 
L 1613 4147 
z
M 2772 2241 
Q 2972 2194 3105 2009 
Q 3238 1825 3413 1275 
L 3809 0 
L 3144 0 
L 2778 1197 
Q 2638 1659 2453 1815 
Q 2269 1972 1888 1972 
L 1191 1972 
L 806 0 
L 172 0 
L 1081 4666 
L 2503 4666 
Q 3150 4666 3495 4373 
Q 3841 4081 3841 3531 
Q 3841 3044 3547 2687 
Q 3253 2331 2772 2241 
z
" id="DejaVuSans-Oblique-52" transform="scale(0.015625)"/>
       <path d="M 1075 4666 
L 1709 4666 
L 909 525 
L 3181 525 
L 3078 0 
L 172 0 
L 1075 4666 
z
" id="DejaVuSans-Oblique-4c" transform="scale(0.015625)"/>
       <path d="M 991 4666 
L 1625 4666 
L 1075 1831 
Q 1041 1641 1027 1517 
Q 1013 1394 1013 1300 
Q 1013 869 1253 645 
Q 1494 422 1959 422 
Q 2563 422 2898 753 
Q 3234 1084 3378 1831 
L 3928 4666 
L 4563 4666 
L 4000 1753 
Q 3816 809 3300 359 
Q 2784 -91 1888 -91 
Q 1188 -91 780 261 
Q 372 613 372 1216 
Q 372 1325 387 1461 
Q 403 1597 434 1753 
L 991 4666 
z
" id="DejaVuSans-Oblique-55" transform="scale(0.015625)"/>
       <path d="M 1984 4856 
Q 1566 4138 1362 3434 
Q 1159 2731 1159 2009 
Q 1159 1288 1364 580 
Q 1569 -128 1984 -844 
L 1484 -844 
Q 1016 -109 783 600 
Q 550 1309 550 2009 
Q 550 2706 781 3412 
Q 1013 4119 1484 4856 
L 1984 4856 
z
" id="DejaVuSans-28" transform="scale(0.015625)"/>
       <path d="M 838 4666 
L 4500 4666 
L 4409 4184 
L 794 531 
L 3769 531 
L 3669 0 
L -141 0 
L -50 481 
L 3566 4134 
L 738 4134 
L 838 4666 
z
" id="DejaVuSans-Oblique-5a" transform="scale(0.015625)"/>
       <path d="M 513 4856 
L 1013 4856 
Q 1481 4119 1714 3412 
Q 1947 2706 1947 2009 
Q 1947 1309 1714 600 
Q 1481 -109 1013 -844 
L 513 -844 
Q 928 -128 1133 580 
Q 1338 1288 1338 2009 
Q 1338 2731 1133 3434 
Q 928 4138 513 4856 
z
" id="DejaVuSans-29" transform="scale(0.015625)"/>
       <path d="M 684 794 
L 1344 794 
L 1344 0 
L 684 0 
L 684 794 
z
" id="DejaVuSans-2e" transform="scale(0.015625)"/>
       <path d="M 691 4666 
L 3169 4666 
L 3169 4134 
L 1269 4134 
L 1269 2991 
Q 1406 3038 1543 3061 
Q 1681 3084 1819 3084 
Q 2600 3084 3056 2656 
Q 3513 2228 3513 1497 
Q 3513 744 3044 326 
Q 2575 -91 1722 -91 
Q 1428 -91 1123 -41 
Q 819 9 494 109 
L 494 744 
Q 775 591 1075 516 
Q 1375 441 1709 441 
Q 2250 441 2565 725 
Q 2881 1009 2881 1497 
Q 2881 1984 2565 2268 
Q 2250 2553 1709 2553 
Q 1456 2553 1204 2497 
Q 953 2441 691 2322 
L 691 4666 
z
" id="DejaVuSans-35" transform="scale(0.015625)"/>
      </defs>
      <use transform="translate(0 0.765625)" xlink:href="#DejaVuSans-Oblique-58"/>
      <use transform="translate(68.505859 0.765625)" xlink:href="#DejaVuSans-31"/>
      <use transform="translate(151.611328 0.765625)" xlink:href="#DejaVuSans-3d"/>
      <use transform="translate(254.882812 0.765625)" xlink:href="#DejaVuSans-Oblique-50"/>
      <use transform="translate(315.185547 0.765625)" xlink:href="#DejaVuSans-Oblique-6f"/>
      <use transform="translate(376.367188 0.765625)" xlink:href="#DejaVuSans-Oblique-73"/>
      <use transform="translate(428.466797 0.765625)" xlink:href="#DejaVuSans-Oblique-69"/>
      <use transform="translate(456.25 0.765625)" xlink:href="#DejaVuSans-Oblique-74"/>
      <use transform="translate(495.458984 0.765625)" xlink:href="#DejaVuSans-Oblique-69"/>
      <use transform="translate(523.242188 0.765625)" xlink:href="#DejaVuSans-Oblique-76"/>
      <use transform="translate(582.421875 0.765625)" xlink:href="#DejaVuSans-Oblique-65"/>
      <use transform="translate(643.945312 0.765625)" xlink:href="#DejaVuSans-Oblique-52"/>
      <use transform="translate(713.427734 0.765625)" xlink:href="#DejaVuSans-Oblique-65"/>
      <use transform="translate(774.951172 0.765625)" xlink:href="#DejaVuSans-Oblique-4c"/>
      <use transform="translate(830.664062 0.765625)" xlink:href="#DejaVuSans-Oblique-55"/>
      <use transform="translate(903.857422 0.765625)" xlink:href="#DejaVuSans-28"/>
      <use transform="translate(942.871094 0.765625)" xlink:href="#DejaVuSans-Oblique-5a"/>
      <use transform="translate(1011.376953 0.765625)" xlink:href="#DejaVuSans-29"/>
      <use transform="translate(1051.347656 39.046875)scale(0.7)" xlink:href="#DejaVuSans-30"/>
      <use transform="translate(1095.883789 39.046875)scale(0.7)" xlink:href="#DejaVuSans-2e"/>
      <use transform="translate(1118.134766 39.046875)scale(0.7)" xlink:href="#DejaVuSans-35"/>
     </g>
    </g>
    <g id="line2d_14">
     <path d="M 66.6 71.572 
L 86.6 71.572 
" style="fill:none;stroke:#ff7f0e;stroke-linecap:square;stroke-width:1.5;"/>
    </g>
    <g id="line2d_15"/>
    <g id="text_11">
     <!-- $X2 = NegativeReLU(Z)^{ 0.5 }$ -->
     <g transform="translate(94.6 75.072)scale(0.1 -0.1)">
      <defs>
       <path d="M 1081 4666 
L 1931 4666 
L 3219 666 
L 4000 4666 
L 4616 4666 
L 3706 0 
L 2853 0 
L 1569 4025 
L 788 0 
L 172 0 
L 1081 4666 
z
" id="DejaVuSans-Oblique-4e" transform="scale(0.015625)"/>
       <path d="M 3816 3500 
L 3219 434 
Q 3047 -456 2561 -893 
Q 2075 -1331 1253 -1331 
Q 950 -1331 690 -1286 
Q 431 -1241 206 -1147 
L 313 -588 
Q 525 -725 762 -790 
Q 1000 -856 1269 -856 
Q 1816 -856 2167 -557 
Q 2519 -259 2631 300 
L 2681 563 
Q 2441 288 2122 144 
Q 1803 0 1434 0 
Q 903 0 598 351 
Q 294 703 294 1319 
Q 294 1803 478 2267 
Q 663 2731 997 3091 
Q 1219 3328 1514 3456 
Q 1809 3584 2131 3584 
Q 2484 3584 2746 3420 
Q 3009 3256 3138 2956 
L 3238 3500 
L 3816 3500 
z
M 2950 2216 
Q 2950 2641 2750 2872 
Q 2550 3103 2181 3103 
Q 1953 3103 1747 3012 
Q 1541 2922 1394 2759 
Q 1156 2491 1023 2127 
Q 891 1763 891 1375 
Q 891 944 1092 712 
Q 1294 481 1672 481 
Q 2219 481 2584 976 
Q 2950 1472 2950 2216 
z
" id="DejaVuSans-Oblique-67" transform="scale(0.015625)"/>
       <path d="M 3438 1997 
L 3047 0 
L 2472 0 
L 2578 531 
Q 2325 219 2001 64 
Q 1678 -91 1281 -91 
Q 834 -91 548 182 
Q 263 456 263 884 
Q 263 1497 752 1853 
Q 1241 2209 2100 2209 
L 2900 2209 
L 2931 2363 
Q 2938 2388 2941 2417 
Q 2944 2447 2944 2509 
Q 2944 2788 2717 2942 
Q 2491 3097 2081 3097 
Q 1800 3097 1504 3025 
Q 1209 2953 897 2809 
L 997 3341 
Q 1322 3463 1633 3523 
Q 1944 3584 2234 3584 
Q 2853 3584 3176 3315 
Q 3500 3047 3500 2534 
Q 3500 2431 3484 2292 
Q 3469 2153 3438 1997 
z
M 2816 1759 
L 2241 1759 
Q 1534 1759 1195 1570 
Q 856 1381 856 984 
Q 856 709 1029 553 
Q 1203 397 1509 397 
Q 1978 397 2328 733 
Q 2678 1069 2791 1631 
L 2816 1759 
z
" id="DejaVuSans-Oblique-61" transform="scale(0.015625)"/>
      </defs>
      <use transform="translate(0 0.765625)" xlink:href="#DejaVuSans-Oblique-58"/>
      <use transform="translate(68.505859 0.765625)" xlink:href="#DejaVuSans-32"/>
      <use transform="translate(151.611328 0.765625)" xlink:href="#DejaVuSans-3d"/>
      <use transform="translate(254.882812 0.765625)" xlink:href="#DejaVuSans-Oblique-4e"/>
      <use transform="translate(329.6875 0.765625)" xlink:href="#DejaVuSans-Oblique-65"/>
      <use transform="translate(391.210938 0.765625)" xlink:href="#DejaVuSans-Oblique-67"/>
      <use transform="translate(454.6875 0.765625)" xlink:href="#DejaVuSans-Oblique-61"/>
      <use transform="translate(515.966797 0.765625)" xlink:href="#DejaVuSans-Oblique-74"/>
      <use transform="translate(555.175781 0.765625)" xlink:href="#DejaVuSans-Oblique-69"/>
      <use transform="translate(582.958984 0.765625)" xlink:href="#DejaVuSans-Oblique-76"/>
      <use transform="translate(642.138672 0.765625)" xlink:href="#DejaVuSans-Oblique-65"/>
      <use transform="translate(703.662109 0.765625)" xlink:href="#DejaVuSans-Oblique-52"/>
      <use transform="translate(773.144531 0.765625)" xlink:href="#DejaVuSans-Oblique-65"/>
      <use transform="translate(834.667969 0.765625)" xlink:href="#DejaVuSans-Oblique-4c"/>
      <use transform="translate(890.380859 0.765625)" xlink:href="#DejaVuSans-Oblique-55"/>
      <use transform="translate(963.574219 0.765625)" xlink:href="#DejaVuSans-28"/>
      <use transform="translate(1002.587891 0.765625)" xlink:href="#DejaVuSans-Oblique-5a"/>
      <use transform="translate(1071.09375 0.765625)" xlink:href="#DejaVuSans-29"/>
      <use transform="translate(1111.064453 39.046875)scale(0.7)" xlink:href="#DejaVuSans-30"/>
      <use transform="translate(1155.600586 39.046875)scale(0.7)" xlink:href="#DejaVuSans-2e"/>
      <use transform="translate(1177.851562 39.046875)scale(0.7)" xlink:href="#DejaVuSans-35"/>
     </g>
    </g>
    <g id="patch_8">
     <path d="M 66.6 89.770438 
L 86.6 89.770438 
L 86.6 82.770438 
L 66.6 82.770438 
z
" style="fill:#008000;fill-opacity:0.5;stroke:#008000;stroke-linejoin:miter;"/>
    </g>
    <g id="text_12">
     <!-- $Z = \mathcal{N}(0,1)$ -->
     <g transform="translate(94.6 89.770438)scale(0.1 -0.1)">
      <defs>
       <path d="M 4294 800 
L 4301 800 
Q 5293 4070 5408 4378 
Q 5472 4538 5523 4614 
Q 5830 5088 6253 5088 
Q 6490 5088 6650 4931 
Q 6810 4774 6810 4550 
Q 6810 4378 6720 4272 
Q 6630 4166 6470 4166 
Q 6368 4166 6297 4224 
Q 6227 4282 6198 4349 
Q 6170 4416 6118 4473 
Q 6067 4531 6003 4531 
Q 5939 4531 5881 4508 
Q 5824 4486 5785 4457 
Q 5747 4429 5705 4371 
Q 5664 4314 5638 4275 
Q 5613 4237 5584 4163 
Q 5555 4090 5545 4058 
Q 5536 4026 5510 3952 
Q 5485 3878 5485 3866 
L 4262 -154 
L 4134 -154 
Q 3078 1280 2483 2893 
L 2470 2893 
Q 2406 2579 2358 2361 
Q 2310 2144 2214 1792 
Q 2118 1440 2028 1190 
Q 1939 941 1804 653 
Q 1670 365 1529 185 
Q 1389 6 1203 -115 
Q 1018 -237 813 -237 
Q 576 -237 416 -80 
Q 256 77 256 301 
Q 256 474 345 579 
Q 435 685 595 685 
Q 698 685 768 627 
Q 838 570 867 502 
Q 896 435 947 377 
Q 998 320 1062 320 
Q 1222 320 1369 480 
Q 1517 640 1638 928 
Q 1760 1216 1862 1542 
Q 1965 1869 2057 2288 
Q 2150 2707 2214 3033 
Q 2278 3360 2348 3741 
Q 2419 4122 2458 4294 
L 2630 4294 
Q 2682 4166 2874 3680 
Q 3066 3194 3142 3008 
Q 3219 2822 3392 2422 
Q 3565 2022 3683 1798 
Q 3802 1574 3968 1292 
Q 4134 1011 4294 800 
z
" id="STIXNonUnicode-Italic-e23a" transform="scale(0.015625)"/>
       <path d="M 750 794 
L 1409 794 
L 1409 256 
L 897 -744 
L 494 -744 
L 750 256 
L 750 794 
z
" id="DejaVuSans-2c" transform="scale(0.015625)"/>
      </defs>
      <use transform="translate(0 0.5)" xlink:href="#DejaVuSans-Oblique-5a"/>
      <use transform="translate(87.988281 0.5)" xlink:href="#DejaVuSans-3d"/>
      <use transform="translate(191.259766 0.5)" xlink:href="#STIXNonUnicode-Italic-e23a"/>
      <use transform="translate(286.959747 0.5)" xlink:href="#DejaVuSans-28"/>
      <use transform="translate(325.973419 0.5)" xlink:href="#DejaVuSans-30"/>
      <use transform="translate(389.596466 0.5)" xlink:href="#DejaVuSans-2c"/>
      <use transform="translate(440.865997 0.5)" xlink:href="#DejaVuSans-31"/>
      <use transform="translate(504.489044 0.5)" xlink:href="#DejaVuSans-29"/>
     </g>
    </g>
   </g>
  </g>
 </g>
 <defs>
  <clipPath id="p17e3e18e3e">
   <rect height="266.112" width="357.12" x="57.6" y="41.472"/>
  </clipPath>
 </defs>
</svg>
