<svg width="250" height="250" xmlns="http://www.w3.org/2000/svg">
  <!-- 10x10 Grid of Squares -->
  <!-- Adjust the size and spacing as needed -->
  <defs>
    <style>
      .small-square {
        fill: none;
        stroke: black;
        stroke-width: 1;
      }
    </style>
  </defs>
  <g id="grid">
    <!-- First row -->
    <rect x="0" y="0" width="20" height="20" class="small-square"/>
    <rect x="20" y="0" width="20" height="20" class="small-square"/>
    <rect x="40" y="0" width="20" height="20" class="small-square"/>
    <rect x="60" y="0" width="20" height="20" class="small-square"/>
    <rect x="80" y="0" width="20" height="20" class="small-square"/>
    <rect x="100" y="0" width="20" height="20" class="small-square"/>
    <rect x="120" y="0" width="20" height="20" class="small-square"/>
    <rect x="140" y="0" width="20" height="20" class="small-square"/>
    <rect x="160" y="0" width="20" height="20" class="small-square"/>
    <rect x="180" y="0" width="20" height="20" class="small-square"/>

    <!-- Second row -->
    <rect x="0" y="20" width="20" height="20" class="small-square"/>
    <rect x="20" y="20" width="20" height="20" class="small-square"/>
    <rect x="40" y="20" width="20" height="20" class="small-square"/>
    <rect x="60" y="20" width="20" height="20" class="small-square"/>
    <rect x="80" y="20" width="20" height="20" class="small-square"/>
    <rect x="100" y="20" width="20" height="20" class="small-square"/>
    <rect x="120" y="20" width="20" height="20" class="small-square"/>
    <rect x="140" y="20" width="20" height="20" class="small-square"/>
    <rect x="160" y="20" width="20" height="20" class="small-square"/>
    <rect x="180" y="20" width="20" height="20" class="small-square"/>

    <!-- Third row -->
    <rect x="0" y="40" width="20" height="20" class="small-square"/>
    <rect x="20" y="40" width="20" height="20" class="small-square"/>
    <rect x="40" y="40" width="20" height="20" class="small-square"/>
    <rect x="60" y="40" width="20" height="20" class="small-square"/>
    <rect x="80" y="40" width="20" height="20" class="small-square"/>
    <rect x="100" y="40" width="20" height="20" class="small-square"/>
    <rect x="120" y="40" width="20" height="20" class="small-square"/>
    <rect x="140" y="40" width="20" height="20" class="small-square"/>
    <rect x="160" y="40" width="20" height="20" class="small-square"/>
    <rect x="180" y="40" width="20" height="20" class="small-square"/>

    <!-- Fourth row -->
    <rect x="0" y="60" width="20" height="20" class="small-square"/>
    <rect x="20" y="60" width="20" height="20" class="small-square"/>
    <rect x="40" y="60" width="20" height="20" class="small-square"/>
    <rect x="60" y="60" width="20" height="20" class="small-square"/>
    <rect x="80" y="60" width="20" height="20" class="small-square"/>
    <rect x="100" y="60" width="20" height="20" class="small-square"/>
    <rect x="120" y="60" width="20" height="20" class="small-square"/>
    <rect x="140" y="60" width="20" height="20" class="small-square"/>
    <rect x="160" y="60" width="20" height="20" class="small-square"/>
    <rect x="180" y="60" width="20" height="20" class="small-square"/>

    <!-- Fifth row -->
    <rect x="0" y="80" width="20" height="20" class="small-square"/>
    <rect x="20" y="80" width="20" height="20" class="small-square"/>
    <rect x="40" y="80" width="20" height="20" class="small-square"/>
    <rect x="60" y="80" width="20" height="20" class="small-square"/>
    <rect x="80" y="80" width="20" height="20" class="small-square"/>
    <rect x="100" y="80" width="20" height="20" class="small-square"/>
    <rect x="120" y="80" width="20" height="20" class="small-square"/>
    <rect x="140" y="80" width="20" height="20" class="small-square"/>
    <rect x="160" y="80" width="20" height="20" class="small-square"/>
    <rect x="180" y="80" width="20" height="20" class="small-square"/>

    <!-- Sixth row -->
    <rect x="0" y="100" width="20" height="20" class="small-square"/>
    <rect x="20" y="100" width="20" height="20" class="small-square"/>
    <rect x="40" y="100" width="20" height="20" class="small-square"/>
    <rect x="60" y="100" width="20" height="20" class="small-square"/>
    <rect x="80" y="100" width="20" height="20" class="small-square"/>
    <rect x="100" y="100" width="20" height="20" class="small-square"/>
    <rect x="120" y="100" width="20" height="20" class="small-square"/>
    <rect x="140" y="100" width="20" height="20" class="small-square"/>
    <rect x="160" y="100" width="20" height="20" class="small-square"/>
    <rect x="180" y="100" width="20" height="20" class="small-square"/>

    <!-- Seventh row -->
    <rect x="0" y="120" width="20" height="20" class="small-square"/>
    <rect x="20" y="120" width="20" height="20" class="small-square"/>
    <rect x="40" y="120" width="20" height="20" class="small-square"/>
    <rect x="60" y="120" width="20" height="20" class="small-square"/>
    <rect x="80" y="120" width="20" height="20" class="small-square"/>
    <rect x="100" y="120" width="20" height="20" class="small-square"/>
    <rect x="120" y="120" width="20" height="20" class="small-square"/>
    <rect x="140" y="120" width="20" height="20" class="small-square"/>
    <rect x="160" y="120" width="20" height="20" class="small-square"/>
    <rect x="180" y="120" width="20" height="20" class="small-square"/>

    <!-- Eighth row -->
    <rect x="0" y="140" width="20" height="20" class="small-square"/>
    <rect x="20" y="140" width="20" height="20" class="small-square"/>
    <rect x="40" y="140" width="20" height="20" class="small-square"/>
    <rect x="60" y="140" width="20" height="20" class="small-square"/>
    <rect x="80" y="140" width="20" height="20" class="small-square"/>
    <rect x="100" y="140" width="20" height="20" class="small-square"/>
    <rect x="120" y="140" width="20" height="20" class="small-square"/>
    <rect x="140" y="140" width="20" height="20" class="small-square"/>
    <rect x="160" y="140" width="20" height="20" class="small-square"/>
    <rect x="180" y="140" width="20" height="20" class="small-square"/>

    <!-- Ninth row -->
    <rect x="0" y="160" width="20" height="20" class="small-square"/>
    <rect x="20" y="160" width="20" height="20" class="small-square"/>
    <rect x="40" y="160" width="20" height="20" class="small-square"/>
    <rect x="60" y="160" width="20" height="20" class="small-square"/>
    <rect x="80" y="160" width="20" height="20" class="small-square"/>
    <rect x="100" y="160" width="20" height="20" class="small-square"/>
    <rect x="120" y="160" width="20" height="20" class="small-square"/>
    <rect x="140" y="160" width="20" height="20" class="small-square"/>
    <rect x="160" y="160" width="20" height="20" class="small-square"/>
    <rect x="180" y="160" width="20" height="20" class="small-square"/>

    <!-- Tenth row -->
    <rect x="0" y="180" width="20" height="20" class="small-square"/>
    <rect x="20" y="180" width="20" height="20" class="small-square"/>
    <rect x="40" y="180" width="20" height="20" class="small-square"/>
    <rect x="60" y="180" width="20" height="20" class="small-square"/>
    <rect x="80" y="180" width="20" height="20" class="small-square"/>
    <rect x="100" y="180" width="20" height="20" class="small-square"/>
    <rect x="120" y="180" width="20" height="20" class="small-square"/>
    <rect x="140" y="180" width="20" height="20" class="small-square"/>
    <rect x="160" y="180" width="20" height="20" class="small-square"/>
    <rect x="180" y="180" width="20" height="20" class="small-square"/>
  </g>
</svg>
